<?xml version="1.0" encoding="UTF-8" standalone="no"?>
<!-- Created with Inkscape (http://www.inkscape.org/) -->
<svg
   xmlns:dc="http://purl.org/dc/elements/1.1/"
   xmlns:cc="http://creativecommons.org/ns#"
   xmlns:rdf="http://www.w3.org/1999/02/22-rdf-syntax-ns#"
   xmlns:svg="http://www.w3.org/2000/svg"
   xmlns="http://www.w3.org/2000/svg"
   xmlns:sodipodi="http://sodipodi.sourceforge.net/DTD/sodipodi-0.dtd"
   xmlns:inkscape="http://www.inkscape.org/namespaces/inkscape"
   width="16"
   height="16"
   id="symbol-atm"
   sodipodi:version="0.32"
   inkscape:version="0.46"
   sodipodi:docname="atm.svg"
   inkscape:output_extension="org.inkscape.output.svg.inkscape">
  <defs
     id="defs2509">
    <inkscape:perspective
       sodipodi:type="inkscape:persp3d"
       inkscape:vp_x="0 : 8 : 1"
       inkscape:vp_y="0 : 1000 : 0"
       inkscape:vp_z="16 : 8 : 1"
       inkscape:persp3d-origin="8 : 5.3333333 : 1"
       id="perspective2515" />
  </defs>
  <sodipodi:namedview
     id="base"
     pagecolor="#ffffff"
     bordercolor="#666666"
     borderopacity="1.0"
     inkscape:pageopacity="0.0"
     inkscape:pageshadow="2"
     inkscape:zoom="22.197802"
     inkscape:cx="8"
     inkscape:cy="8"
     inkscape:current-layer="layer1"
     showgrid="true"
     inkscape:grid-bbox="true"
     inkscape:document-units="px"
     inkscape:window-width="1000"
     inkscape:window-height="676"
     inkscape:window-x="283"
     inkscape:window-y="197" />
  <metadata
     id="metadata2512">
    <rdf:RDF>
      <cc:Work
         rdf:about="">
        <dc:format>image/svg+xml</dc:format>
        <dc:type
           rdf:resource="http://purl.org/dc/dcmitype/StillImage" />
      </cc:Work>
    </rdf:RDF>
  </metadata>
  <g
     id="layer1"
     inkscape:label="Layer 1"
     inkscape:groupmode="layer">
    <g
       transform="matrix(2.3545185e-2,0,0,2.236866e-2,-1.6398204,-5.6662133)"
       id="g2517">
      <g
         transform="translate(35.461052,35.387522)"
         id="g4785">
        <g
           transform="matrix(53.564733,0,0,-53.564733,90.099091,269.32242)"
           id="g2345">
          <path
             d="M 0,0 C 0,0.423 0.343,0.766 0.766,0.766 L 10.047,0.766 C 10.47,0.766 10.813,0.423 10.813,0 L 10.813,-11.512 C 10.813,-11.936 10.47,-12.279 10.047,-12.279 L 0.766,-12.279 C 0.343,-12.279 0,-11.936 0,-11.512 L 0,0 z"
             id="path2347"
             style="fill:#ffffff;fill-opacity:1;fill-rule:nonzero;stroke:#007fc3;stroke-width:0.31900001;stroke-linecap:butt;stroke-linejoin:miter;stroke-miterlimit:3.86400008;stroke-dasharray:none;stroke-opacity:1" />
        </g>
        <g
           transform="matrix(53.564733,0,0,-53.564733,264.88072,399.53834)"
           id="g2349">
          <path
             d="M 0,0 L 0,-1.227 L 0.685,-1.227 L 0.685,0.371 L 0.371,0.371 C 0.17,0.371 0,0.207 0,0 z M 0,-4.239 C 0,-4.457 0.17,-4.629 0.376,-4.629 L 0.685,-4.629 L 0.685,-3.379 L 2.823,-3.379 L 2.823,-6.329 L -1.176,-6.329 C -1.705,-6.329 -2.09,-5.899 -2.09,-5.371 L -2.09,1.112 C -2.09,1.643 -1.705,2.071 -1.176,2.071 L 2.823,2.071 L 2.823,-2.884 L 0,-2.884 L 0,-4.239"
             id="path2351"
             style="fill:#007fc3;fill-opacity:1;fill-rule:evenodd;stroke:none" />
        </g>
        <g
           transform="matrix(53.564733,0,0,-53.564733,163.05428,828.69899)"
           id="g2353">
          <path
             d="M 0,0 L 0.199,0 L 0.199,0.11 C 0.196,0.232 0.173,0.274 0.094,0.274 C -0.002,0.274 0,0.164 0,0.05 L 0,0 z M -0.195,-0.294 L -0.195,0.031 C -0.206,0.325 -0.101,0.492 0.091,0.492 C 0.365,0.492 0.394,0.288 0.394,-0.054 L 0.394,-0.221 L 0,-0.221 L 0,-0.402 C 0.004,-0.566 0.046,-0.597 0.105,-0.597 C 0.176,-0.597 0.199,-0.521 0.196,-0.362 L 0.391,-0.362 C 0.399,-0.64 0.32,-0.815 0.12,-0.815 C -0.107,-0.815 -0.2,-0.659 -0.195,-0.294"
             id="path2355"
             style="fill:#007fc3;fill-opacity:1;fill-rule:evenodd;stroke:none" />
        </g>
        <g
           transform="matrix(53.564733,0,0,-53.564733,607.58788,738.54954)"
           id="g2357"
           style="fill:#ff0000">
          <path
             d="M 0,0 L -3.923,0 L -3.968,0.005 L -4.01,0.011 L -4.056,0.019 L -4.098,0.03 L -4.138,0.045 L -4.18,0.059 L -4.22,0.073 C -4.349,0.131 -4.432,0.19 -4.534,0.288 C -4.622,0.381 -4.693,0.491 -4.74,0.611 L -4.754,0.65 L -4.766,0.696 L -4.777,0.738 L -4.788,0.78 L -4.794,0.826 L -4.8,0.868 L -4.802,0.916 L -4.805,0.958 L -4.805,7.449 C -4.799,7.701 -4.714,7.926 -4.539,8.108 C -4.453,8.2 -4.347,8.274 -4.231,8.323 L -4.192,8.341 L -4.152,8.355 L -4.109,8.366 L -4.07,8.377 L -4.025,8.386 L -3.982,8.391 L -3.94,8.397 L -3.895,8.4 L 0,8.4 L 0,5.105 L -2.047,5.105 L -2.047,6.705 C -2.363,6.755 -2.705,6.683 -2.724,6.312 L -2.724,6.457 L -2.726,6.307 L -2.724,6.312 L -2.724,2.095 L -2.726,2.101 L -2.724,2.064 L -2.724,2.095 C -2.704,1.723 -2.364,1.65 -2.042,1.703 L -2.042,3.416 L -2.033,3.447 L 0,3.447 L 0,0"
             id="path2359"
             style="fill:#ff0000;fill-opacity:1;fill-rule:evenodd;stroke:none" />
        </g>
        <g
           transform="matrix(53.564733,0,0,-53.564733,500.45851,827.1992)"
           id="g2361"
           style="fill:#ff0000">
          <path
             d="M 0,0 L -0.195,0 L -0.195,0.138 C -0.198,0.206 -0.223,0.246 -0.263,0.246 C -0.338,0.246 -0.338,0.119 -0.338,-0.031 L -0.338,-0.326 C -0.345,-0.569 -0.322,-0.614 -0.263,-0.625 C -0.203,-0.622 -0.2,-0.54 -0.195,-0.441 L -0.195,-0.326 L 0,-0.326 L 0,-0.441 C 0,-0.701 -0.073,-0.843 -0.268,-0.843 C -0.441,-0.843 -0.539,-0.71 -0.531,-0.379 L -0.531,0.022 C -0.534,0.373 -0.418,0.464 -0.268,0.464 C -0.07,0.464 0.004,0.283 0,0.099 L 0,0"
             id="path2363"
             style="fill:#ff0000;fill-opacity:1;fill-rule:nonzero;stroke:none" />
        </g>
        <g
           transform="matrix(53.564733,0,0,-53.564733,398.52476,738.54954)"
           id="g2365">
          <path
             d="M 0,0 C -0.237,0.01 -0.465,0.12 -0.631,0.288 C -0.719,0.381 -0.79,0.491 -0.837,0.611 L -0.851,0.65 L -0.863,0.696 L -0.874,0.738 L -0.885,0.78 L -0.891,0.826 L -0.897,0.868 L -0.899,0.916 L -0.902,0.958 L -0.902,2.95 L 0.328,2.95 L 0.328,0 L 0,0 z M -0.902,7.449 C -0.878,8.126 -0.324,8.486 0.328,8.4 L 0.328,3.445 L -0.902,3.445 L -0.902,7.449"
             id="path2367"
             style="fill:#292526;fill-opacity:1;fill-rule:evenodd;stroke:none" />
        </g>
        <g
           transform="matrix(53.564733,0,0,-53.564733,197.49689,870.69321)"
           id="g2369">
          <path
             d="M 0,0 L 0,1.655"
             id="path2371"
             style="fill:none;stroke:#292526;stroke-width:0.198;stroke-linecap:butt;stroke-linejoin:miter;stroke-miterlimit:4;stroke-dasharray:none;stroke-opacity:1" />
        </g>
        <g
           transform="matrix(53.564733,0,0,-53.564733,220.79706,828.69899)"
           id="g2373">
          <path
             d="M 0,0 L 0.195,0 L 0.195,0.11 C 0.195,0.232 0.173,0.274 0.094,0.274 C -0.006,0.274 0,0.164 0,0.05 L 0,0 z M -0.195,-0.294 L -0.195,0.031 C -0.204,0.325 -0.102,0.492 0.09,0.492 C 0.365,0.492 0.394,0.288 0.394,-0.054 L 0.394,-0.221 L 0,-0.221 L 0,-0.402 C 0.003,-0.566 0.046,-0.597 0.102,-0.597 C 0.176,-0.597 0.195,-0.521 0.193,-0.362 L 0.39,-0.362 C 0.399,-0.64 0.32,-0.815 0.119,-0.815 C -0.107,-0.815 -0.198,-0.659 -0.195,-0.294"
             id="path2375"
             style="fill:#292526;fill-opacity:1;fill-rule:evenodd;stroke:none" />
        </g>
        <g
           transform="matrix(53.564733,0,0,-53.564733,276.39717,827.1992)"
           id="g2377">
          <path
             d="M 0,0 L -0.195,0 L -0.195,0.138 C -0.198,0.206 -0.22,0.246 -0.262,0.246 C -0.337,0.246 -0.337,0.119 -0.337,-0.031 L -0.337,-0.326 C -0.339,-0.569 -0.319,-0.614 -0.262,-0.625 C -0.203,-0.622 -0.201,-0.54 -0.195,-0.441 L -0.195,-0.326 L 0,-0.326 L 0,-0.441 C 0,-0.701 -0.07,-0.843 -0.266,-0.843 C -0.441,-0.843 -0.54,-0.71 -0.532,-0.379 L -0.532,0.022 C -0.534,0.373 -0.416,0.464 -0.266,0.464 C -0.067,0.464 0.003,0.283 0,0.099 L 0,0"
             id="path2379"
             style="fill:#292526;fill-opacity:1;fill-rule:nonzero;stroke:none" />
        </g>
        <g
           transform="matrix(53.564733,0,0,-53.564733,297.76959,858.85598)"
           id="g2381">
          <path
             d="M 0,0 L 0,-0.226 C -0.119,-0.243 -0.28,-0.261 -0.28,-0.029 L -0.28,0.815 L -0.359,0.815 L -0.359,1.023 L -0.283,1.023 L -0.283,1.366 L -0.085,1.366 L -0.085,1.023 L 0,1.023 L 0,0.815 L -0.085,0.815 L -0.085,0.039 C -0.079,-0.012 -0.025,-0.003 0,0"
             id="path2383"
             style="fill:#292526;fill-opacity:1;fill-rule:nonzero;stroke:none" />
        </g>
        <g
           transform="matrix(53.564733,0,0,-53.564733,312.17845,804.05971)"
           id="g2385">
          <path
             d="M 0,0 L 0,-0.22 L 0.003,-0.22 C 0.028,-0.129 0.051,-0.079 0.079,-0.045 C 0.133,0.023 0.172,0.02 0.203,0.023 L 0.203,-0.319 C 0.093,-0.302 0.011,-0.342 0.008,-0.526 L 0.008,-1.244 L -0.19,-1.244 L -0.19,0 L 0,0"
             id="path2387"
             style="fill:#292526;fill-opacity:1;fill-rule:nonzero;stroke:none" />
        </g>
        <g
           transform="matrix(53.564733,0,0,-53.564733,341.85325,872.35426)"
           id="g2389">
          <path
             d="M 0,0 C -0.257,-0.009 -0.303,0.178 -0.3,0.608 C -0.3,1.035 -0.297,1.307 0,1.307 C 0.291,1.307 0.295,1.035 0.295,0.608 C 0.297,0.178 0.255,-0.009 0,0 z M -0.105,0.851 L -0.105,0.438 C -0.105,0.286 -0.093,0.218 0,0.218 C 0.091,0.218 0.099,0.286 0.099,0.438 L 0.099,0.851 C 0.099,0.967 0.099,1.089 0,1.089 C -0.105,1.089 -0.105,0.967 -0.105,0.851"
             id="path2391"
             style="fill:#292526;fill-opacity:1;fill-rule:evenodd;stroke:none" />
        </g>
        <g
           transform="matrix(53.564733,0,0,-53.564733,374.74211,804.05971)"
           id="g2393">
          <path
             d="M 0,0 L 0,-0.127 L 0.003,-0.127 C 0.048,0.018 0.136,0.032 0.181,0.032 C 0.291,0.032 0.382,-0.061 0.376,-0.282 L 0.376,-1.244 L 0.181,-1.244 L 0.181,-0.415 C 0.181,-0.294 0.17,-0.215 0.096,-0.208 C 0.023,-0.206 -0.003,-0.308 0,-0.438 L 0,-1.244 L -0.195,-1.244 L -0.195,0 L 0,0"
             id="path2395"
             style="fill:#292526;fill-opacity:1;fill-rule:nonzero;stroke:none" />
        </g>
        <path
           d="M 413.68367,795.97095 L 403.0778,795.97095 L 403.0778,782.04413 L 413.68367,782.04413 L 413.68367,795.97095 z M 413.68367,870.69379 L 403.0778,870.69379 L 403.0778,804.00562 L 413.68367,804.00562 L 413.68367,870.69379 z"
           id="path2397"
           style="fill:#292526;fill-opacity:1;fill-rule:evenodd;stroke:none" />
        <g
           transform="matrix(53.564733,0,0,-53.564733,449.57198,827.1992)"
           id="g2399">
          <path
             d="M 0,0 L -0.197,0 L -0.197,0.138 C -0.201,0.206 -0.223,0.246 -0.263,0.246 C -0.339,0.246 -0.339,0.119 -0.337,-0.031 L -0.337,-0.326 C -0.342,-0.569 -0.322,-0.614 -0.263,-0.625 C -0.203,-0.622 -0.203,-0.54 -0.197,-0.441 L -0.197,-0.326 L 0,-0.326 L 0,-0.441 C 0,-0.701 -0.074,-0.843 -0.269,-0.843 C -0.441,-0.843 -0.543,-0.71 -0.535,-0.379 L -0.535,0.022 C -0.535,0.373 -0.418,0.464 -0.269,0.464 C -0.071,0.464 0,0.283 0,0.099 L 0,0"
             id="path2401"
             style="fill:#292526;fill-opacity:1;fill-rule:nonzero;stroke:none" />
        </g>
        <g
           transform="matrix(53.564733,0,0,-53.564733,525.47368,842.67932)"
           id="g2403">
          <path
             d="M 0,0 L 0,0.133 C -0.048,0.085 -0.107,0.035 -0.161,-0.025 C -0.187,-0.062 -0.192,-0.124 -0.192,-0.175 C -0.192,-0.271 -0.169,-0.336 -0.099,-0.336 C 0.015,-0.336 -0.003,-0.121 0,0 z M 0.212,-0.523 L 0.026,-0.523 C 0.015,-0.483 0.015,-0.441 0.015,-0.396 C -0.033,-0.497 -0.093,-0.554 -0.161,-0.554 C -0.319,-0.554 -0.387,-0.441 -0.387,-0.181 C -0.387,0.099 -0.251,0.17 -0.096,0.263 C -0.014,0.311 0.015,0.371 0,0.47 C -0.008,0.526 -0.039,0.535 -0.09,0.535 C -0.18,0.535 -0.195,0.467 -0.195,0.354 L -0.382,0.354 C -0.382,0.589 -0.331,0.753 -0.085,0.753 C 0.184,0.753 0.198,0.552 0.198,0.386 L 0.198,-0.35 C 0.198,-0.407 0.201,-0.463 0.212,-0.523"
             id="path2405"
             style="fill:#292526;fill-opacity:1;fill-rule:evenodd;stroke:none" />
        </g>
        <g
           transform="matrix(53.564733,0,0,-53.564733,541.3819,848.73273)"
           id="g2407">
          <path
             d="M 0,0 L 0.195,0 C 0.181,-0.229 0.243,-0.223 0.286,-0.223 C 0.345,-0.223 0.382,-0.161 0.368,-0.082 C 0.365,-0.011 0.309,0.029 0.272,0.065 L 0.167,0.173 C 0.068,0.272 0.003,0.388 0.003,0.566 C 0.003,0.758 0.108,0.866 0.294,0.866 C 0.487,0.866 0.575,0.722 0.569,0.456 L 0.373,0.456 C 0.377,0.594 0.351,0.648 0.281,0.648 C 0.235,0.648 0.198,0.617 0.198,0.546 C 0.198,0.473 0.235,0.439 0.272,0.402 L 0.436,0.244 C 0.484,0.201 0.56,0.082 0.566,0 C 0.586,-0.218 0.549,-0.441 0.274,-0.441 C 0.173,-0.441 -0.022,-0.379 0,0"
             id="path2409"
             style="fill:#292526;fill-opacity:1;fill-rule:nonzero;stroke:none" />
        </g>
        <g
           transform="matrix(53.564733,0,0,-53.564733,587.93018,870.69321)"
           id="g2411">
          <path
             d="M 0,0 L -0.198,0 L -0.198,1.655 L 0,1.655 L 0,1.117 L 0.002,1.117 C 0.056,1.264 0.138,1.276 0.178,1.276 C 0.291,1.276 0.382,1.183 0.376,0.962 L 0.376,0 L 0.178,0 L 0.178,0.852 C 0.178,0.973 0.17,1.052 0.096,1.058 C 0.022,1.061 -0.003,0.962 0,0.826 L 0,0"
             id="path2413"
             style="fill:#292526;fill-opacity:1;fill-rule:nonzero;stroke:none" />
        </g>
      </g>
    </g>
  </g>
</svg>
