<?xml version="1.0" encoding="UTF-8" standalone="no"?>
<!-- Created with Inkscape (http://www.inkscape.org/) -->

<svg
   xmlns:dc="http://purl.org/dc/elements/1.1/"
   xmlns:cc="http://creativecommons.org/ns#"
   xmlns:rdf="http://www.w3.org/1999/02/22-rdf-syntax-ns#"
   xmlns:svg="http://www.w3.org/2000/svg"
   xmlns="http://www.w3.org/2000/svg"
   xmlns:sodipodi="http://sodipodi.sourceforge.net/DTD/sodipodi-0.dtd"
   xmlns:inkscape="http://www.inkscape.org/namespaces/inkscape"
   version="1.0"
   width="22"
   height="15.999969"
   id="svg2"
   sodipodi:version="0.32"
   inkscape:version="0.47 r22583"
   sodipodi:docname="bakery.svg"
   inkscape:output_extension="org.inkscape.output.svg.inkscape">
  <metadata
     id="metadata2975">
    <rdf:RDF>
      <cc:Work
         rdf:about="">
        <dc:format>image/svg+xml</dc:format>
        <dc:type
           rdf:resource="http://purl.org/dc/dcmitype/StillImage" />
        <cc:license
           rdf:resource="http://web.resource.org/cc/PublicDomain" />
        <dc:language>en</dc:language>
        <dc:title />
      </cc:Work>
    </rdf:RDF>
  </metadata>
  <sodipodi:namedview
     inkscape:window-height="686"
     inkscape:window-width="1014"
     inkscape:pageshadow="2"
     inkscape:pageopacity="0.0"
     guidetolerance="10.0"
     gridtolerance="10.0"
     objecttolerance="10.0"
     borderopacity="1.0"
     bordercolor="#666666"
     pagecolor="#ffffff"
     id="base"
     inkscape:zoom="8"
     inkscape:cx="14.504769"
     inkscape:cy="20.376297"
     inkscape:window-x="1"
     inkscape:window-y="1"
     inkscape:current-layer="svg2"
     showgrid="false"
     inkscape:window-maximized="0" />
  <defs
     id="defs4">
    <inkscape:perspective
       sodipodi:type="inkscape:persp3d"
       inkscape:vp_x="0 : 290 : 1"
       inkscape:vp_y="6.1230318e-14 : 1000 : 0"
       inkscape:vp_z="580 : 290 : 1"
       inkscape:persp3d-origin="290 : 193.33333 : 1"
       id="perspective2441" />
    <inkscape:perspective
       id="perspective3452"
       inkscape:persp3d-origin="30 : 20 : 1"
       inkscape:vp_z="60 : 30 : 1"
       inkscape:vp_y="0 : 1000 : 0"
       inkscape:vp_x="0 : 30 : 1"
       sodipodi:type="inkscape:persp3d" />
    <symbol
       viewBox="244.5 110 489 219.9"
       id="symbol-university">
      <path
         id="path4460"
         d="m 79,43 57,119 c 0,0 21,-96 104,-96 83,0 124,106 124,106 L 407,39 489,22 0,17 79,43 z" />
      <path
         id="path4462"
         d="M 94,176 73,215"
         style="fill:none;stroke:#000000;stroke-width:20" />
      <path
         id="path4464"
         d="M 300,19 C 300,29.5 277.4,38 249.5,38 221.6,38 199,29.5 199,19 199,8.5 221.6,0 249.5,0 277.4,0 300,8.5 300,19 z" />
      <path
         id="path4466"
         d="M 112,216 96,178 64,88 C 64,88 55,80 60,53 65,26 76,29 76,29"
         ill="none"
         style="stroke:#000000;stroke-width:20" />
    </symbol>
    <inkscape:perspective
       id="perspective4471"
       inkscape:persp3d-origin="372.04724 : 350.78739 : 1"
       inkscape:vp_z="744.09448 : 526.18109 : 1"
       inkscape:vp_y="0 : 1000 : 0"
       inkscape:vp_x="0 : 526.18109 : 1"
       sodipodi:type="inkscape:persp3d" />
    <inkscape:perspective
       id="perspective4668"
       inkscape:persp3d-origin="6 : 4 : 1"
       inkscape:vp_z="12 : 6 : 1"
       inkscape:vp_y="0 : 1000 : 0"
       inkscape:vp_x="0 : 6 : 1"
       sodipodi:type="inkscape:persp3d" />
    <inkscape:perspective
       id="perspective7157"
       inkscape:persp3d-origin="372.04724 : 350.78739 : 1"
       inkscape:vp_z="744.09448 : 526.18109 : 1"
       inkscape:vp_y="0 : 1000 : 0"
       inkscape:vp_x="0 : 526.18109 : 1"
       sodipodi:type="inkscape:persp3d" />
  </defs>
  <g
     id="layer3"
     inkscape:label="Layout"
     style="stroke:#757575;stroke-opacity:1;display:none"
     transform="matrix(48.14969,0,0,48.14969,-590.06266,-494.59508)">
    <rect
       style="fill:none;stroke:#757575;stroke-width:0.1;stroke-miterlimit:4;stroke-opacity:1;stroke-dasharray:none;display:inline"
       id="rect4134"
       width="10"
       height="10"
       x="1"
       y="1" />
    <rect
       style="fill:none;stroke:#757575;stroke-width:0.1;stroke-miterlimit:4;stroke-opacity:1;stroke-dasharray:none;display:inline"
       id="rect4136"
       width="8"
       height="8"
       x="2"
       y="2" />
  </g>
  <g
     id="g3338"
     transform="matrix(1.3973279,-0.2437849,0.2437849,1.3973279,-238.86341,-517.47164)" />
  <path
     style="fill:#ff6600;fill-opacity:1;fill-rule:evenodd;stroke:none"
     d="M 6.7883969,7.9168563e-4 C 5.8272449,0.01229169 4.8640379,0.23282169 3.9742689,0.67062169 c -0.01,0.004 -0.01932,0.01 -0.02929,0.0142 -0.01314,0.007 -0.02683,0.0114 -0.03994,0.018 l 0,0.001 C 0.14432888,2.4352317 -0.93246412,7.0125217 0.81535488,10.386002 c 2.42745002,4.92524 8.63796902,6.60911 13.61537712,5.05404 4.564109,-1.22168 8.369174,-5.5777103 7.424028,-10.4978503 -0.0059,-0.0306 -0.0097,-0.061 -0.01597,-0.0916 l -0.0027,0 c -0.531968,-3.41898 -4.150411,-5.47111001 -7.482601,-4.66685001 -1.197792,0.28915 -2.2647,0.76967 -3.217478,1.38353001 C 9.9200719,0.52169169 8.3596089,-0.01826831 6.7883549,4.7168563e-4 z M 16.01219,0.86938169 c 0.118617,-0.008 0.230374,0.0653 0.263575,0.18068001 l 0.263575,0.91375 c 0.0018,0.005 0.004,0.0113 0.0053,0.0168 0.03333,0.13311 -0.05174,0.26712 -0.189028,0.29943 -0.137293,0.0323 -0.275506,-0.0502 -0.308835,-0.18327 l -0.263575,-0.91376 c -0.03794,-0.13185 0.04105,-0.26779001 0.177048,-0.30458001 0.017,-0.004 0.03497,-0.008 0.05192,-0.009 z M 8.6054669,1.4462817 c 0.141157,-0.006 0.260356,0.10062 0.266237,0.23747 0.0059,0.13686 -0.10378,0.25242 -0.244938,0.25812 l -0.97576,0.0723 c -0.140789,0.0103 -0.263564,-0.0919 -0.274224,-0.22843 -0.01066,-0.13651 0.09483,-0.25554 0.23562,-0.26587 l 0.97576,-0.0723 c 0.0058,-6.2e-4 0.01152,-7.3e-4 0.01731,-10e-4 z m -4.740356,0.46333 c 0.01698,3.1e-4 0.03337,0.003 0.05058,0.007 l 0.955793,0.20779 c 0.0057,7.3e-4 0.01037,0.002 0.01597,0.004 0.136672,0.0347 0.219491,0.17079 0.183703,0.30329 -0.03579,0.13251 -0.176156,0.21152 -0.312828,0.17682 l -0.954461,-0.20908 c -0.137723,-0.0302 -0.224133,-0.16203 -0.193022,-0.29555 0.02722,-0.11683 0.13537,-0.19593 0.254256,-0.19359 z m 9.0360951,0.27361 c 0.08212,4.8e-4 0.162669,0.0398 0.211659,0.11099 0.07838,0.11396 0.04699,0.26731 -0.07055,0.3433 l -0.796049,0.55368 c -0.114744,0.0798 -0.273151,0.0545 -0.355427,-0.0568 -0.08228,-0.11125 -0.05617,-0.26612 0.05857,-0.34589 l 0.794719,-0.55367 c 0.0046,-0.004 0.0085,-0.006 0.01331,-0.009 0.04408,-0.0285 0.0945,-0.0429 0.143768,-0.0426 z m 7.036654,0.57174 c 0.141157,-0.006 0.260355,0.10062 0.266237,0.23747 0.0059,0.13686 -0.103781,0.25242 -0.244939,0.25812 l -0.975759,0.0723 c -0.14079,0.0103 -0.263565,-0.0919 -0.274225,-0.22845 -0.01066,-0.13649 0.09483,-0.25553 0.23562,-0.26586 l 0.97576,-0.0723 c 0.0058,-6.2e-4 0.01152,-7.3e-4 0.01731,-10e-4 z m -13.0842341,0.2749 c 0.675674,0.003 1.354912,0.19371 1.910252,0.55496 -1.543762,1.66552 -2.862954,4.02789 -3.722005,5.89038 -0.23844,0.49317 -0.184316,1.0721203 0.142436,1.5151703 0.326753,0.44307 0.875237,0.68133 1.433689,0.62208 0.55845,-0.0593 1.040454,-0.40621 1.260634,-0.9073 0.799767,-1.7339503 1.994601,-3.7906703 3.2481031,-5.1263303 1.153519,1.19016 2.43681,3.12686 2.973887,4.6449403 0.173986,0.51692 0.621558,0.9023 1.171444,1.00926 0.549886,0.10695 1.116762,-0.0812 1.482942,-0.49302 0.36618,-0.41185 0.475052,-0.9829903 0.284873,-1.4945303 -0.664631,-1.87862 -2.113538,-4.11319 -3.470419,-5.55611 0.485693,-0.24958 0.995048,-0.45046 1.534859,-0.58077 0.1996,-0.0481 0.402973,-0.0738 0.607021,-0.0787 1.428333,-0.0343 2.874413,0.94612 3.06306,2.31278 l 0.0067,0.0465 0.0093,0.0465 c 0.630263,3.09173 -2.09866,6.2758003 -5.248868,7.1190203 l -0.03195,0.009 -0.03195,0.009 C 9.8877629,13.694262 5.2297169,12.353622 3.6068849,9.0609317 l -0.0067,-0.0129 -0.0067,-0.0142 c -0.994695,-1.91999 -0.307194,-4.73832 1.681353,-5.62707 l 0.03461,-0.0155 0.03461,-0.018 c 0.460545,-0.23347 0.984041,-0.34541 1.509566,-0.34331 z m -4.573958,1.66231 c 0.07877,0.004 0.155188,0.0425 0.20234,0.111 0.07838,0.11395 0.04699,0.26859 -0.07055,0.34459 l -0.794719,0.55367 c -0.114744,0.0798 -0.274482,0.0532 -0.356758,-0.0581 -0.08227,-0.11125 -0.05617,-0.26612 0.05857,-0.34589 l 0.794719,-0.55238 c 0.0046,-0.004 0.0098,-0.007 0.01464,-0.0103 0.03673,-0.0237 0.07739,-0.0377 0.118475,-0.0413 0.0113,-7.2e-4 0.02203,-0.001 0.03328,-0.001 z m 11.7530471,0.77566 c 0.109048,7.3e-4 0.209255,0.0702 0.242276,0.17681 0.04064,0.13119 -0.03641,0.27034 -0.171723,0.30975 l -0.926506,0.30329 c -0.133769,0.0438 -0.279628,-0.0252 -0.324809,-0.15487 -0.04518,-0.12969 0.0273,-0.26982 0.161073,-0.31362 l 0.926506,-0.30458 c 0.0054,-0.002 0.01044,-0.004 0.01597,-0.005 0.02537,-0.007 0.05205,-0.0119 0.07721,-0.0116 z m -4.7110691,0.14584 c 0.141157,-0.006 0.260356,0.10062 0.266237,0.23747 0.0059,0.13686 -0.103781,0.25242 -0.244939,0.25812 l -0.975759,0.0723 c -0.14079,0.0103 -0.263565,-0.0919 -0.274224,-0.22843 -0.01066,-0.13651 0.09483,-0.25554 0.235619,-0.26587 l 0.97576,-0.0723 c 0.0058,-6.2e-4 0.01152,-7.3e-4 0.01731,-0.001 z m 10.7746251,0.0981 c 0.04923,-0.001 0.09923,0.0122 0.143768,0.04 l 0.824005,0.51237 c 0.005,0.003 0.0099,0.006 0.01464,0.009 0.116186,0.0779 0.145607,0.23195 0.06523,0.34459 -0.08038,0.11265 -0.240572,0.14117 -0.356757,0.0633 l -0.822674,-0.51238 c -0.118772,-0.074 -0.153553,-0.22815 -0.07721,-0.3433 0.04772,-0.072 0.12695,-0.11176 0.208997,-0.11357 z m -5.366014,2.55024 c 0.01698,3.2e-4 0.03337,0.003 0.05058,0.007 l 0.954461,0.20907 c 0.0057,7.3e-4 0.01171,10e-4 0.01731,0.003 0.136672,0.0347 0.218159,0.17079 0.182372,0.3033 -0.03579,0.1325 -0.174825,0.2115 -0.311498,0.17681 l -0.954461,-0.20779 c -0.137722,-0.0302 -0.224132,-0.16331 -0.193021,-0.29684 0.02722,-0.11684 0.135371,-0.19593 0.254256,-0.19359 z m -8.1335511,0.21812 c 0.04923,-10e-4 0.09923,0.011 0.143769,0.0387 l 0.824004,0.51237 c 0.005,0.003 0.0099,0.006 0.01464,0.009 0.116186,0.0779 0.144277,0.23324 0.0639,0.34588 -0.08038,0.11265 -0.23924,0.14117 -0.355426,0.0633 l -0.824005,-0.51367 c -0.118773,-0.074 -0.152222,-0.22686 -0.07588,-0.34201 0.04771,-0.072 0.126949,-0.11176 0.208996,-0.11358 z m -4.294408,0.0568 c 0.141158,-0.006 0.260356,0.10062 0.266238,0.23748 0.0059,0.13685 -0.103781,0.25242 -0.244939,0.25812 l -0.97576,0.0723 c -0.140789,0.0103 -0.263564,-0.0919 -0.274224,-0.22844 -0.01066,-0.1365 0.09483,-0.25553 0.23562,-0.26587 l 0.97576,-0.0723 c 0.0058,-6.1e-4 0.01152,-7.2e-4 0.01731,-10e-4 z m 17.7167641,0.61433 c 0.08212,4.8e-4 0.162669,0.0398 0.211659,0.11099 0.07838,0.11397 0.04566,0.26731 -0.07188,0.3433 l -0.794718,0.5536803 c -0.114744,0.0798 -0.274483,0.0545 -0.356758,-0.0568 -0.08227,-0.1112503 -0.05617,-0.2661203 0.05857,-0.3458903 l 0.79605,-0.55367 c 0.0046,-0.004 0.0085,-0.006 0.01331,-0.009 0.04408,-0.0285 0.0945,-0.0429 0.143768,-0.0426 z M 3.3273119,10.816152 c 0.108938,0.003 0.207453,0.0748 0.238283,0.18198 l 0.263574,0.91375 c 0.0018,0.005 0.004,0.01 0.0053,0.0155 0.03333,0.13311 -0.05174,0.26711 -0.189029,0.29942 -0.137292,0.0323 -0.275506,-0.0489 -0.308835,-0.18198 l -0.26355,-0.91375 c -0.03794,-0.13185 0.04238,-0.26908 0.17838,-0.30588 0.0255,-0.007 0.05074,-0.01 0.07588,-0.009 z m 14.1425271,0.56529 c 0.141055,-0.006 0.259995,0.10072 0.266237,0.23747 l 0.04393,0.94731 c 4.59e-4,0.006 0.0013,0.0112 0.0013,0.0168 0.0015,0.13697 -0.112984,0.24897 -0.254257,0.25038 -0.141272,0.001 -0.256795,-0.10825 -0.25825,-0.24521 l -0.04393,-0.94731 c -0.0062,-0.13676 0.103883,-0.25336 0.244938,-0.25942 z m -11.5946351,1.88688 c 0.01698,3.1e-4 0.0347,0.003 0.05192,0.007 l 0.954461,0.20909 c 0.0057,7.2e-4 0.0117,0.002 0.01731,0.004 0.136672,0.0347 0.21816,0.1695 0.182372,0.302 -0.03579,0.13251 -0.176156,0.21152 -0.312828,0.17682 l -0.954461,-0.20779 c -0.137723,-0.0302 -0.224133,-0.16332 -0.193023,-0.29684 0.02722,-0.11683 0.135371,-0.19593 0.254258,-0.19359 z m 8.9269371,0.42332 c 0.141158,-0.006 0.260356,0.10061 0.266237,0.23747 0.0059,0.13686 -0.103781,0.25242 -0.244938,0.25813 l -0.97576,0.0723 c -0.140789,0.0103 -0.263565,-0.0919 -0.274224,-0.22845 -0.01066,-0.13649 0.09483,-0.25553 0.23562,-0.26586 l 0.97576,-0.0723 c 0.0058,-6.2e-4 0.01152,-7.3e-4 0.01731,-0.001 z m -5.1383811,0.24005 c 0.04923,-10e-4 0.09923,0.011 0.143769,0.0387 l 0.8240041,0.51238 c 0.005,0.003 0.0099,0.006 0.01464,0.009 0.116186,0.0779 0.144277,0.23325 0.0639,0.34589 -0.08038,0.11264 -0.23924,0.14117 -0.355426,0.0633 l -0.8240051,-0.51367 c -0.118773,-0.074 -0.152222,-0.22685 -0.07588,-0.34201 0.04772,-0.072 0.126949,-0.11175 0.208996,-0.11357 z"
     id="path7165"
     sodipodi:nodetypes="ccsccccsccccccccssccsccsccsccccccssccsccsccsccsccsccsccccccsscccssccssccccccccccccccsccsccssccsccsccsccsccsccccccssccsccccssccsccccssccsccsccsccccsccsccsccccssccsccccssccccccssccsccsccsccccccssccsc" />
</svg>
