<?xml version="1.0" encoding="UTF-8" standalone="no"?>
<!-- Created with Inkscape (http://www.inkscape.org/) -->
<svg
   xmlns:i="http://ns.adobe.com/AdobeIllustrator/10.0/"
   xmlns:dc="http://purl.org/dc/elements/1.1/"
   xmlns:cc="http://creativecommons.org/ns#"
   xmlns:rdf="http://www.w3.org/1999/02/22-rdf-syntax-ns#"
   xmlns:svg="http://www.w3.org/2000/svg"
   xmlns="http://www.w3.org/2000/svg"
   xmlns:sodipodi="http://sodipodi.sourceforge.net/DTD/sodipodi-0.dtd"
   xmlns:inkscape="http://www.inkscape.org/namespaces/inkscape"
   width="16"
   height="13"
   id="hamburger.svg"
   sodipodi:version="0.32"
   inkscape:version="0.46"
   version="1.0"
   sodipodi:docname="hamburger.svg"
   inkscape:output_extension="org.inkscape.output.svg.inkscape">
  <defs
     id="defs2513">
    <inkscape:perspective
       sodipodi:type="inkscape:persp3d"
       inkscape:vp_x="0 : 526.18109 : 1"
       inkscape:vp_y="0 : 1000 : 0"
       inkscape:vp_z="744.09448 : 526.18109 : 1"
       inkscape:persp3d-origin="372.04724 : 350.78739 : 1"
       id="perspective2519" />
  </defs>
  <sodipodi:namedview
     id="base"
     pagecolor="#ffffff"
     bordercolor="#666666"
     borderopacity="1.0"
     gridtolerance="10000"
     guidetolerance="10"
     objecttolerance="10"
     inkscape:pageopacity="0.0"
     inkscape:pageshadow="2"
     inkscape:zoom="11.2"
     inkscape:cx="15.045426"
     inkscape:cy="12.662836"
     inkscape:document-units="px"
     inkscape:current-layer="layer1"
     showgrid="false"
     inkscape:window-width="917"
     inkscape:window-height="768"
     inkscape:window-x="155"
     inkscape:window-y="85" />
  <metadata
     id="metadata2516">
    <rdf:RDF>
      <cc:Work
         rdf:about="">
        <dc:format>image/svg+xml</dc:format>
        <dc:type
           rdf:resource="http://purl.org/dc/dcmitype/StillImage" />
      </cc:Work>
    </rdf:RDF>
  </metadata>
  <g
     inkscape:label="Layer 1"
     inkscape:groupmode="layer"
     id="layer1">
    <g
       i:dimmedPercent="50"
       i:layer="yes"
       i:rgbTrio="#4F008000FFFF"
       id="Layer_1"
       transform="matrix(7.9672859e-2,0,0,7.4339391e-2,0.1293468,6.6466063e-2)">
      <g
         id="g7">
        <path
           clip-rule="evenodd"
           d="M 180.562,58.338 C 181.751,52.11 181.427,46.098 179.195,39.87 C 176.963,33.534 174.406,27.054 167.494,21.258 C 160.474,15.426 148.199,9.09 137.615,5.562 C 126.924,1.962 116.123,0.342 103.81,0.018 C 91.354,-0.414 76.055,-0.09 63.743,3.366 C 51.322,6.75 38.506,13.734 30.298,20.43 C 22.054,26.91 17.23,34.974 14.998,42.678 C 12.874,50.346 13.486,58.302 17.23,66.546 C 16.906,69.642 15.466,71.262 12.766,71.694 C 9.958,71.982 2.938,68.094 1.03,68.778 C -0.95,69.462 0.166,74.142 1.462,75.726 C 2.758,77.202 5.098,77.778 8.626,77.598 C 6.034,79.038 4.738,80.334 4.594,81.63 C 4.486,82.926 5.53,84.078 7.87,85.23 L 0.886,94.446 L 1.39,99.486 C 3.55,99.198 5.854,99.234 8.302,99.45 C 10.714,99.666 13.198,100.17 15.898,100.962 C 10.714,102.834 7.87,105.066 7.51,107.802 C 7.186,110.466 9.022,113.598 13.558,117.198 C 13.018,123.57 13.738,129.221 15.718,134.298 C 17.734,139.266 18.274,142.218 25.402,147.438 C 32.566,152.695 45.13,161.01 57.838,165.583 C 70.33,170.011 84.226,174.583 100.354,173.863 C 116.554,172.926 141.214,167.995 153.923,160.47 C 166.343,152.802 173.218,142.363 174.694,128.574 L 180.958,123.21 C 186.034,117.234 188.554,112.77 188.519,109.674 C 188.41,106.47 185.746,104.994 180.527,104.706 C 180.742,102.689 180.959,100.313 180.886,97.434 C 180.814,94.518 180.599,91.243 180.238,87.462 C 182.326,87.606 184.343,88.002 186.683,88.938 C 188.913,89.802 191.326,93.474 193.775,92.718 C 196.15,91.746 200.615,88.29 200.759,83.898 C 200.687,79.434 197.267,71.01 193.954,66.69 C 190.498,62.37 186.179,59.634 180.562,58.338 z"
           i:knockout="Off"
           stroke-miterlimit="10"
           id="path9"
           style="fill-rule:evenodd;stroke:#000000;stroke-width:0.036;stroke-miterlimit:10" />
        <path
           clip-rule="evenodd"
           d="M 177.718,61.254 C 175.81,69.246 170.374,75.798 161.409,80.766 C 152.157,85.734 137.759,89.19 123.358,90.703 C 108.741,91.927 90.346,90.919 75.514,89.047 C 60.718,87.175 45.346,84.763 35.374,79.723 C 25.366,74.503 18.202,66.583 16.114,58.447 C 13.99,50.059 16.438,39.223 22.882,30.799 C 29.29,22.375 43.006,13.411 54.31,8.623 C 65.614,3.834 78.862,3.15 89.878,2.394 C 100.606,1.566 108.993,2.106 118.931,3.87 C 128.974,5.49 139.919,7.866 149.134,12.654 C 158.134,17.442 167.782,24.426 172.679,32.634 C 177.539,40.806 179.41,53.082 177.718,61.254 z"
           i:knockout="Off"
           stroke-miterlimit="10"
           id="path11"
           style="fill:#c6902c;fill-rule:evenodd;stroke:#000000;stroke-width:0.036;stroke-miterlimit:10" />
        <path
           clip-rule="evenodd"
           d="M 180.851,60.282 C 184.306,61.11 187.402,63.054 190.138,66.114 C 192.909,69.138 196.187,74.322 197.195,78.354 C 198.058,82.314 196.654,88.11 195.466,89.766 C 194.134,91.243 192.443,89.01 189.419,87.93 C 186.106,86.814 181.317,84.546 176.997,83.466 C 172.786,82.386 168.431,81.558 164.073,81.27 C 167.423,80.406 170.374,78.354 173.218,74.826 C 175.955,71.262 178.546,66.51 180.851,60.282 z"
           i:knockout="Off"
           stroke-miterlimit="10"
           id="path13"
           style="fill:#00c200;fill-rule:evenodd;stroke:#000000;stroke-width:0.036;stroke-miterlimit:10" />
        <path
           clip-rule="evenodd"
           d="M 152.986,103.698 C 149.927,104.597 147.371,107.154 145.318,111.366 C 143.23,115.506 141.646,121.302 140.566,128.754 C 140.027,127.35 137.759,125.441 133.222,123.03 C 128.722,120.473 122.279,117.593 113.745,113.994 C 114.645,112.59 115.653,111.654 117.309,111.473 C 118.858,111.221 121.305,112.913 122.997,112.517 C 124.511,111.977 125.733,110.681 126.671,108.486 C 128.038,110.141 129.622,110.862 131.134,110.645 C 132.611,110.357 134.482,107.082 135.923,107.045 C 137.362,106.973 138.55,107.801 139.63,109.925 C 140.386,106.217 142.007,103.913 144.202,102.869 C 146.398,101.79 149.279,102.114 152.986,103.698 z"
           i:knockout="Off"
           stroke-miterlimit="10"
           id="path15"
           style="fill:#f2c802;fill-rule:evenodd;stroke:#000000;stroke-width:0.036;stroke-miterlimit:10" />
        <path
           clip-rule="evenodd"
           d="M 112.919,114.714 C 116.157,116.046 119.11,117.342 121.919,118.602 C 124.581,119.682 126.31,120.331 129.442,122.058 C 132.538,123.858 136.245,126.126 140.565,129.15 L 139.989,132.93 C 135.671,129.582 131.35,126.774 126.634,124.218 C 121.919,121.662 117.095,119.502 112.019,117.739 C 112.306,116.729 112.595,115.722 112.919,114.714 z"
           i:knockout="Off"
           stroke-miterlimit="10"
           id="path17"
           style="fill:#f2c802;fill-rule:evenodd;stroke:#000000;stroke-width:0.036;stroke-miterlimit:10" />
        <path
           clip-rule="evenodd"
           d="M 2.435,94.158 L 8.915,87.21 C 11.579,89.226 13.775,90.306 15.647,90.594 C 17.447,90.739 18.563,88.434 19.967,88.542 C 21.299,88.542 22.343,91.313 24.071,91.025 C 25.691,90.593 28.823,86.525 30.011,86.741 C 31.127,87.029 31.415,88.866 30.875,92.537 C 31.523,93.976 32.027,95.02 32.243,96.064 C 32.459,97.001 32.423,97.756 32.135,98.333 C 28.319,96.965 24.215,96.029 19.247,95.381 C 14.243,94.769 8.951,94.445 2.795,94.553 L 2.435,94.158 z"
           i:knockout="Off"
           stroke-miterlimit="10"
           id="path19"
           style="fill:#f2c802;fill-rule:evenodd;stroke:#000000;stroke-width:0.036;stroke-miterlimit:10" />
        <path
           clip-rule="evenodd"
           d="M 33.179,99.918 C 30.479,98.766 26.699,97.758 21.443,97.038 C 16.115,96.21 9.815,95.67 2.003,95.273 L 2.651,97.614 C 5.459,97.902 8.447,98.261 11.759,98.838 C 15.143,99.342 18.563,99.99 22.415,100.926 C 26.123,101.754 29.759,102.834 33.719,104.166 C 33.539,102.762 33.358,101.357 33.179,99.918 z"
           i:knockout="Off"
           stroke-miterlimit="10"
           id="path21"
           style="fill:#f2c802;fill-rule:evenodd;stroke:#000000;stroke-width:0.036;stroke-miterlimit:10" />
        <path
           clip-rule="evenodd"
           d="M 33.322,82.314 C 32.818,85.122 32.782,88.182 33.214,91.494 C 33.574,94.734 34.474,98.729 35.77,101.97 C 37.102,105.138 37.21,108.235 41.098,110.286 C 44.914,112.194 52.87,116.729 58.558,113.49 C 64.246,110.141 69.394,102.582 74.686,90.521 C 68.746,90.198 62.626,89.37 55.642,88.038 C 48.659,86.634 41.351,84.726 33.322,82.314 z"
           i:knockout="Off"
           stroke-miterlimit="10"
           id="path23"
           style="fill:#00c200;fill-rule:evenodd;stroke:#000000;stroke-width:0.036;stroke-miterlimit:10" />
        <path
           clip-rule="evenodd"
           d="M 18.526,101.862 C 21.514,102.221 24.466,102.761 27.238,103.481 C 30.01,104.202 32.602,105.101 35.158,106.181 C 35.626,108.45 36.886,110.429 39.082,112.121 C 41.242,113.705 45.022,115.181 48.082,116.009 C 50.998,116.694 53.698,117.593 56.866,116.477 C 59.998,115.289 63.274,112.769 66.838,108.917 C 69.178,109.169 71.554,109.169 74.11,108.917 C 76.666,108.593 79.114,108.125 81.886,107.369 C 80.878,109.997 81.202,111.688 83.146,112.445 C 85.054,113.165 88.294,112.949 93.154,111.797 L 91.966,120.149 C 86.494,123.065 80.266,124.866 72.886,125.694 C 65.398,126.521 57.154,128.645 48.01,124.83 C 38.867,120.762 29.183,113.238 18.526,101.862 z"
           i:knockout="Off"
           stroke-miterlimit="10"
           id="path25"
           style="fill:#ff0000;fill-rule:evenodd;stroke:#000000;stroke-width:0.036;stroke-miterlimit:10" />
        <path
           clip-rule="evenodd"
           d="M 101.291,117.198 C 103.559,120.006 107.051,122.309 112.055,124.254 C 116.987,126.198 123.25,127.53 130.991,128.646 C 126.421,126.487 122.315,124.542 118.68,122.67 C 114.971,120.798 111.731,119.142 108.959,117.558 L 104.676,111.222 C 103.558,113.202 102.443,115.182 101.291,117.198 z"
           i:knockout="Off"
           stroke-miterlimit="10"
           id="path27"
           style="fill:#ff0000;fill-rule:evenodd;stroke:#000000;stroke-width:0.036;stroke-miterlimit:10" />
        <path
           clip-rule="evenodd"
           d="M 112.126,107.766 C 110.759,102.582 109.355,97.398 107.95,92.214 C 100.282,92.43 94.018,92.538 88.762,92.394 C 83.434,92.214 79.51,91.926 76.558,91.386 C 72.994,97.182 70.906,101.466 70.15,104.094 C 69.358,106.758 70.402,106.794 71.914,107.262 C 73.354,107.586 76.27,107.046 78.862,106.47 C 81.418,105.894 84.01,104.958 87.034,103.806 C 84.658,106.111 83.47,107.838 83.326,108.991 C 83.218,110.035 84.262,110.467 86.314,110.682 C 88.186,110.863 90.994,110.79 94.738,110.323 C 94.198,113.671 94.162,115.831 94.774,117.235 C 95.35,118.566 96.718,119.898 98.194,118.171 C 99.526,116.191 101.182,112.411 103.019,106.147 C 106.402,110.719 108.742,113.095 110.326,113.419 C 111.875,113.634 112.378,111.798 112.126,107.766 z"
           i:knockout="Off"
           stroke-miterlimit="10"
           id="path29"
           style="fill:#80ff00;fill-rule:evenodd;stroke:#000000;stroke-width:0.036;stroke-miterlimit:10" />
        <path
           clip-rule="evenodd"
           d="M 144.238,125.118 C 146.578,124.397 149.351,123.426 152.41,122.057 C 155.543,120.618 158.783,118.925 162.672,116.837 C 161.303,111.365 160.188,108.161 159.322,107.081 C 158.386,106.001 158.062,110.681 157.234,110.429 C 156.336,110.033 155.326,108.198 154.066,104.921 C 151.043,106.901 148.775,109.637 147.119,112.985 C 145.498,116.37 144.49,120.366 144.238,125.118 z"
           i:knockout="Off"
           stroke-miterlimit="10"
           id="path31"
           style="fill:#ff0000;fill-rule:evenodd;stroke:#000000;stroke-width:0.036;stroke-miterlimit:10" />
        <path
           clip-rule="evenodd"
           d="M 178.546,90.414 L 172.931,95.886 C 173.003,98.947 173.507,101.574 174.046,103.626 C 174.694,105.678 175.378,107.298 176.493,108.342 L 179.339,105.03 C 179.087,100.17 178.835,95.31 178.546,90.414 z"
           i:knockout="Off"
           stroke-miterlimit="10"
           id="path33"
           style="fill:#ff0000;fill-rule:evenodd;stroke:#000000;stroke-width:0.036;stroke-miterlimit:10" />
        <path
           clip-rule="evenodd"
           d="M 174.119,109.746 C 173.615,108.054 172.642,107.334 171.203,107.298 C 169.654,107.154 166.019,108.558 165.299,109.71 C 164.543,110.862 164.94,112.41 166.631,114.354 C 168.574,113.418 170.016,112.699 171.348,111.907 C 172.642,111.114 173.435,110.394 174.119,109.746 z"
           i:knockout="Off"
           stroke-miterlimit="10"
           id="path35"
           style="fill:#ff0000;fill-rule:evenodd;stroke:#000000;stroke-width:0.036;stroke-miterlimit:10" />
        <path
           clip-rule="evenodd"
           d="M 16.187,102.51 C 11.651,103.554 9.635,105.823 10.535,109.314 C 11.399,112.806 17.375,119.106 21.083,123.21 C 24.503,127.134 24.683,128.718 31.883,133.218 C 39.191,137.826 50.207,146.071 64.355,150.174 C 78.431,154.098 100.031,158.058 115.402,156.618 C 130.558,154.889 143.41,147.87 154.931,140.994 C 166.413,134.189 175.702,125.981 183.622,116.082 C 185.565,112.158 186.106,109.602 185.099,108.558 C 183.982,107.407 181.57,107.55 177.574,109.674 C 173.47,111.87 166.883,117.99 161.267,121.374 C 155.615,124.578 149.962,127.098 144.023,128.934 L 141.394,135.703 L 133.187,131.058 C 129.91,131.743 125.591,131.274 120.226,129.655 C 114.718,127.926 108.347,125.083 100.714,120.978 C 93.946,124.002 86.962,126.199 79.33,127.566 C 71.518,128.898 62.842,130.411 55.102,129.043 C 47.326,127.423 40.306,123.247 33.754,118.747 C 27.167,114.282 21.442,108.918 16.187,102.51 z"
           i:knockout="Off"
           stroke-miterlimit="10"
           id="path37"
           style="fill:#ffe42e;fill-rule:evenodd;stroke:#000000;stroke-width:0.036;stroke-miterlimit:10" />
        <path
           clip-rule="evenodd"
           d="M 64.03,134.478 C 64.606,135.09 85.126,140.13 96.286,140.707 C 107.339,141.103 125.591,138.331 129.802,137.394 C 133.726,136.495 126.851,135.415 120.695,135.415 C 114.504,135.307 102.91,137.215 93.406,137.106 C 83.867,136.926 63.526,133.83 64.03,134.478 z"
           i:knockout="Off"
           stroke-miterlimit="10"
           id="path39"
           style="fill-rule:evenodd;stroke:#000000;stroke-width:0.036;stroke-miterlimit:10" />
        <path
           clip-rule="evenodd"
           d="M 16.834,120.186 C 20.542,125.911 25.582,131.094 32.098,136.279 C 38.47,141.426 46.138,146.718 55.534,150.499 C 64.966,154.135 76.378,156.511 88.114,157.915 C 99.778,159.175 113.855,160.11 124.906,158.239 C 135.886,156.115 145.463,150.967 153.49,146.287 C 161.447,141.679 167.566,136.495 172.283,130.735 C 172.679,135.342 171.095,139.842 167.387,144.667 C 163.498,149.455 157.559,155.106 150.143,159.139 C 142.872,163.099 134.555,166.196 123.647,168.139 C 112.452,169.868 97.368,171.775 84.084,169.975 C 70.692,168.032 54.888,162.307 44.448,157.231 C 33.972,152.047 26.628,145.855 21.984,139.627 C 17.375,133.326 15.61,127.025 16.834,120.186 z"
           i:knockout="Off"
           stroke-miterlimit="10"
           id="path41"
           style="fill:#c6902c;fill-rule:evenodd;stroke:#000000;stroke-width:0.036;stroke-miterlimit:10" />
        <path
           clip-rule="evenodd"
           d="M 110.542,93.51 C 111.767,98.622 113.062,102.474 114.573,105.21 C 116.087,107.874 117.671,108.99 119.325,109.674 C 120.874,110.214 122.423,109.746 123.573,109.098 C 124.618,108.451 125.05,107.334 125.266,105.75 C 127.03,107.082 128.397,107.622 129.766,107.514 C 131.026,107.298 131.35,105.39 132.969,104.994 C 134.553,104.598 136.496,104.742 139.09,105.282 C 139.594,101.933 141.106,99.845 143.625,99.017 C 146.182,98.189 151.652,99.089 153.922,100.313 C 155.973,101.429 155.324,105.065 156.297,105.786 C 157.16,106.254 158.17,102.473 159.465,104.021 C 160.762,105.605 163.029,114.101 163.893,115.362 C 164.614,116.406 163.534,112.553 163.713,110.754 C 163.785,108.882 163.568,105.606 164.434,104.67 C 165.262,103.77 167.205,105.03 168.61,105.246 C 169.977,105.353 171.202,105.426 172.426,105.462 C 171.057,102.87 170.408,100.53 170.481,98.441 C 170.553,96.318 171.237,94.769 172.678,92.826 C 173.973,90.773 176.133,88.578 178.762,86.238 L 162.453,83.106 C 158.853,85.086 154.174,86.742 147.98,88.506 C 141.609,90.126 131.853,92.214 125.517,93.114 C 119.218,93.978 114.322,94.014 110.542,93.51 z"
           i:knockout="Off"
           stroke-miterlimit="10"
           id="path43"
           style="fill:#80ff00;fill-rule:evenodd;stroke:#000000;stroke-width:0.036;stroke-miterlimit:10" />
        <path
           clip-rule="evenodd"
           d="M 19.462,68.202 C 19.786,70.326 19.066,71.874 17.698,72.702 C 16.186,73.422 13.378,73.386 10.786,73.134 C 8.086,72.846 3.01,70.758 2.074,71.154 C 1.174,71.478 3.55,74.106 5.314,75.15 C 6.97,76.014 8.986,76.554 11.758,76.626 C 9.706,78.966 8.662,80.91 8.77,82.602 C 8.842,84.186 10.426,85.986 12.01,86.598 C 13.414,87.102 15.682,85.914 17.41,86.094 C 18.958,86.274 19.642,88.182 21.946,87.498 C 24.322,86.562 27.346,84.546 31.45,81.054 C 29.938,80.406 28.318,79.038 26.302,76.95 C 24.287,74.718 22.055,71.946 19.462,68.202 z"
           i:knockout="Off"
           stroke-miterlimit="10"
           id="path45"
           style="fill:#80ff00;fill-rule:evenodd;stroke:#000000;stroke-width:0.036;stroke-miterlimit:10" />
        <path
           clip-rule="evenodd"
           d="M 45.022,87.533 C 44.878,87.246 43.294,86.993 43.186,87.066 C 43.042,87.173 43.474,87.894 43.906,88.11 C 44.159,88.11 45.13,87.643 45.022,87.533 z"
           i:knockout="Off"
           stroke-miterlimit="10"
           id="path47"
           style="fill-rule:evenodd;stroke:#000000;stroke-width:0.036;stroke-miterlimit:10" />
        <path
           clip-rule="evenodd"
           d="M 45.599,91.17 C 45.455,90.882 43.871,90.63 43.763,90.702 C 43.655,90.773 43.979,91.601 44.447,91.782 C 44.663,91.782 45.743,91.35 45.599,91.17 z"
           i:knockout="Off"
           stroke-miterlimit="10"
           id="path49"
           style="fill-rule:evenodd;stroke:#000000;stroke-width:0.036;stroke-miterlimit:10" />
        <path
           clip-rule="evenodd"
           d="M 45.599,98.334 C 45.455,98.046 43.871,97.794 43.763,97.866 C 43.655,97.973 43.979,98.694 44.447,98.91 C 44.663,98.91 45.743,98.441 45.599,98.334 z"
           i:knockout="Off"
           stroke-miterlimit="10"
           id="path51"
           style="fill-rule:evenodd;stroke:#000000;stroke-width:0.036;stroke-miterlimit:10" />
        <path
           clip-rule="evenodd"
           d="M 45.238,94.77 C 45.094,94.482 43.51,94.23 43.402,94.302 C 43.294,94.374 43.618,95.202 44.086,95.382 C 44.302,95.382 45.382,94.95 45.238,94.77 z"
           i:knockout="Off"
           stroke-miterlimit="10"
           id="path53"
           style="fill-rule:evenodd;stroke:#000000;stroke-width:0.036;stroke-miterlimit:10" />
        <path
           clip-rule="evenodd"
           d="M 46.606,102.474 C 46.462,102.186 44.878,101.934 44.77,102.006 C 44.662,102.078 44.986,102.906 45.454,103.086 C 45.67,103.086 46.75,102.654 46.606,102.474 z"
           i:knockout="Off"
           stroke-miterlimit="10"
           id="path55"
           style="fill-rule:evenodd;stroke:#000000;stroke-width:0.036;stroke-miterlimit:10" />
        <path
           clip-rule="evenodd"
           d="M 47.218,106.506 C 47.074,106.218 45.49,105.966 45.382,106.038 C 45.238,106.145 45.67,106.866 46.102,107.082 C 46.354,107.082 47.327,106.614 47.218,106.506 z"
           i:knockout="Off"
           stroke-miterlimit="10"
           id="path57"
           style="fill-rule:evenodd;stroke:#000000;stroke-width:0.036;stroke-miterlimit:10" />
        <path
           clip-rule="evenodd"
           d="M 51.683,107.586 C 51.827,107.298 53.303,107.154 53.591,107.298 C 53.771,107.442 52.979,108.09 52.763,108.27 C 52.367,108.234 51.539,107.729 51.683,107.586 z"
           i:knockout="Off"
           stroke-miterlimit="10"
           id="path59"
           style="fill-rule:evenodd;stroke:#000000;stroke-width:0.036;stroke-miterlimit:10" />
        <path
           clip-rule="evenodd"
           d="M 53.123,103.266 C 53.231,102.978 54.779,102.834 54.995,102.978 C 55.139,103.086 54.455,103.842 54.203,103.987 C 53.807,103.986 52.979,103.374 53.123,103.266 z"
           i:knockout="Off"
           stroke-miterlimit="10"
           id="path61"
           style="fill-rule:evenodd;stroke:#000000;stroke-width:0.036;stroke-miterlimit:10" />
        <path
           clip-rule="evenodd"
           d="M 54.347,99.342 C 54.455,99.054 56.003,98.91 56.219,99.054 C 56.363,99.199 55.679,99.846 55.427,100.026 C 55.03,99.99 54.203,99.486 54.347,99.342 z"
           i:knockout="Off"
           stroke-miterlimit="10"
           id="path63"
           style="fill-rule:evenodd;stroke:#000000;stroke-width:0.036;stroke-miterlimit:10" />
        <path
           clip-rule="evenodd"
           d="M 56.002,95.886 C 56.11,95.598 57.658,95.454 57.874,95.598 C 58.018,95.706 57.334,96.462 57.082,96.606 C 56.687,96.605 55.858,95.994 56.002,95.886 z"
           i:knockout="Off"
           stroke-miterlimit="10"
           id="path65"
           style="fill-rule:evenodd;stroke:#000000;stroke-width:0.036;stroke-miterlimit:10" />
        <path
           clip-rule="evenodd"
           d="M 57.046,92.142 C 57.154,91.854 58.702,91.71 58.918,91.854 C 59.062,91.999 58.378,92.646 58.126,92.827 C 57.73,92.79 56.902,92.286 57.046,92.142 z"
           i:knockout="Off"
           stroke-miterlimit="10"
           id="path67"
           style="fill-rule:evenodd;stroke:#000000;stroke-width:0.036;stroke-miterlimit:10" />
        <path
           clip-rule="evenodd"
           d="M 177.322,78.066 C 177.504,77.958 177.898,76.446 177.97,76.302 C 177.863,76.05 176.89,76.518 176.855,76.878 C 176.675,77.094 177.107,78.138 177.322,78.066 z"
           i:knockout="Off"
           stroke-miterlimit="10"
           id="path69"
           style="fill-rule:evenodd;stroke:#000000;stroke-width:0.036;stroke-miterlimit:10" />
        <path
           clip-rule="evenodd"
           d="M 181.894,80.118 C 182.074,80.046 182.47,78.426 182.542,78.318 C 182.435,78.066 181.462,78.534 181.427,78.894 C 181.246,79.182 181.679,80.19 181.894,80.118 z"
           i:knockout="Off"
           stroke-miterlimit="10"
           id="path71"
           style="fill-rule:evenodd;stroke:#000000;stroke-width:0.036;stroke-miterlimit:10" />
        <path
           clip-rule="evenodd"
           d="M 186.359,82.35 C 186.539,82.242 186.935,80.73 187.007,80.586 C 186.898,80.334 185.927,80.802 185.89,81.162 C 185.71,81.378 186.142,82.422 186.359,82.35 z"
           i:knockout="Off"
           stroke-miterlimit="10"
           id="path73"
           style="fill-rule:evenodd;stroke:#000000;stroke-width:0.036;stroke-miterlimit:10" />
        <path
           clip-rule="evenodd"
           d="M 191.794,83.898 C 191.974,83.79 192.37,82.278 192.442,82.134 C 192.335,81.882 191.362,82.35 191.325,82.71 C 191.146,82.926 191.578,83.97 191.794,83.898 z"
           i:knockout="Off"
           stroke-miterlimit="10"
           id="path75"
           style="fill-rule:evenodd;stroke:#000000;stroke-width:0.036;stroke-miterlimit:10" />
        <path
           clip-rule="evenodd"
           d="M 189.886,77.202 C 190.138,77.094 190.497,75.582 190.57,75.438 C 190.427,75.186 189.527,75.654 189.42,76.014 C 189.238,76.23 189.671,77.274 189.886,77.202 z"
           i:knockout="Off"
           stroke-miterlimit="10"
           id="path77"
           style="fill-rule:evenodd;stroke:#000000;stroke-width:0.036;stroke-miterlimit:10" />
        <path
           clip-rule="evenodd"
           d="M 186.503,72.918 C 186.683,72.846 187.077,71.226 187.149,71.118 C 187.042,70.866 186.069,71.334 186.034,71.694 C 185.855,71.982 186.287,72.99 186.503,72.918 z"
           i:knockout="Off"
           stroke-miterlimit="10"
           id="path79"
           style="fill-rule:evenodd;stroke:#000000;stroke-width:0.036;stroke-miterlimit:10" />
        <path
           clip-rule="evenodd"
           d="M 181.355,69.462 C 181.607,69.354 181.966,67.842 182.039,67.698 C 181.894,67.41 180.994,67.914 180.887,68.238 C 180.707,68.526 181.138,69.534 181.355,69.462 z"
           i:knockout="Off"
           stroke-miterlimit="10"
           id="path81"
           style="fill-rule:evenodd;stroke:#000000;stroke-width:0.036;stroke-miterlimit:10" />
        <path
           clip-rule="evenodd"
           d="M 157.199,88.218 C 157.344,88.074 160.654,89.046 162.42,91.134 C 164.039,93.294 166.92,99.27 167.315,100.602 C 167.567,101.611 165.696,99.774 164.76,98.155 C 163.752,96.571 162.852,93.15 161.627,91.495 C 160.294,89.694 157.019,88.326 157.199,88.218 z"
           i:knockout="Off"
           stroke-miterlimit="10"
           id="path83"
           style="fill-rule:evenodd;stroke:#000000;stroke-width:0.036;stroke-miterlimit:10" />
        <path
           clip-rule="evenodd"
           d="M 125.843,94.662 C 125.447,94.41 125.771,97.47 124.87,98.838 C 123.969,100.206 120.37,102.51 120.442,102.834 C 120.405,103.05 123.61,100.602 124.762,100.35 C 125.77,99.882 125.625,100.495 126.67,100.819 C 127.641,101.178 130.774,102.69 130.809,102.583 C 130.737,102.403 127.534,100.927 126.741,99.703 C 125.878,98.37 126.13,94.698 125.843,94.662 z"
           i:knockout="Off"
           stroke-miterlimit="10"
           id="path85"
           style="fill-rule:evenodd;stroke:#000000;stroke-width:0.036;stroke-miterlimit:10" />
        <path
           clip-rule="evenodd"
           d="M 95.134,95.021 C 94.81,96.498 94.486,97.83 94.162,99.198 C 93.838,100.53 94.954,101.826 93.73,103.229 C 92.47,104.669 86.746,107.477 86.854,107.622 C 86.998,107.729 92.47,104.273 94.018,104.634 C 95.53,105.03 95.602,110.106 95.926,109.998 C 96.25,109.853 94.954,106.937 97.042,105.138 C 99.166,103.338 101.758,103.122 101.758,103.122 C 99.633,103.194 97.978,102.618 96.934,101.25 C 95.818,99.918 95.17,97.794 95.134,95.021 z"
           i:knockout="Off"
           stroke-miterlimit="10"
           id="path87"
           style="fill-rule:evenodd;stroke:#000000;stroke-width:0.036;stroke-miterlimit:10" />
        <path
           clip-rule="evenodd"
           d="M 50.207,48.078 C 49.559,48.186 48.695,48.294 48.047,48.942 C 47.219,49.482 45.851,50.598 45.743,51.462 C 45.635,52.29 46.607,53.694 47.399,53.874 C 48.047,53.838 49.055,53.046 49.847,52.074 C 50.459,50.994 51.503,48.978 51.611,48.258 C 51.646,47.538 50.71,47.898 50.207,48.078 z"
           i:knockout="Off"
           stroke-miterlimit="10"
           id="path89"
           style="fill-rule:evenodd;stroke:#000000;stroke-width:0.036;stroke-miterlimit:10" />
        <path
           clip-rule="evenodd"
           d="M 49.811,48.762 C 49.379,48.726 48.803,48.942 48.227,49.41 C 47.543,49.878 46.319,50.778 46.211,51.57 C 46.067,52.218 46.859,53.298 47.471,53.406 C 48.011,53.334 48.875,52.506 49.523,51.75 C 50.063,50.886 50.747,49.374 50.891,48.87 C 50.818,48.33 50.314,48.618 49.811,48.762 z"
           i:knockout="Off"
           stroke-miterlimit="10"
           id="path91"
           style="fill:#ffe42e;fill-rule:evenodd;stroke:#000000;stroke-width:0.036;stroke-miterlimit:10" />
        <path
           clip-rule="evenodd"
           d="M 80.807,58.842 C 80.915,59.31 81.167,60.282 81.851,60.93 C 82.499,61.614 83.579,62.91 84.551,63.018 C 85.379,63.018 86.639,61.758 86.819,61.182 C 86.855,60.354 85.739,59.598 84.839,58.914 C 83.651,58.194 81.635,57.474 80.879,57.438 C 80.194,57.402 80.59,58.194 80.807,58.842 z"
           i:knockout="Off"
           stroke-miterlimit="10"
           id="path93"
           style="fill-rule:evenodd;stroke:#000000;stroke-width:0.036;stroke-miterlimit:10" />
        <path
           clip-rule="evenodd"
           d="M 81.526,59.202 C 81.526,59.634 81.778,60.102 82.282,60.75 C 82.822,61.29 83.83,62.406 84.622,62.55 C 85.27,62.586 86.206,61.65 86.314,61.146 C 86.242,60.534 85.27,59.706 84.514,59.238 C 83.614,58.626 82.03,58.158 81.562,58.122 C 81.094,58.122 81.311,58.662 81.526,59.202 z"
           i:knockout="Off"
           stroke-miterlimit="10"
           id="path95"
           style="fill:#ffe42e;fill-rule:evenodd;stroke:#000000;stroke-width:0.036;stroke-miterlimit:10" />
        <path
           clip-rule="evenodd"
           d="M 107.519,36.63 C 106.871,36.666 106.007,36.846 105.359,37.458 C 104.531,38.07 103.162,39.006 103.054,39.978 C 102.947,40.842 103.919,42.174 104.71,42.426 C 105.321,42.39 106.401,41.598 107.122,40.626 C 107.806,39.582 108.778,37.458 108.923,36.774 C 108.958,36.126 108.023,36.45 107.519,36.63 z"
           i:knockout="Off"
           stroke-miterlimit="10"
           id="path97"
           style="fill-rule:evenodd;stroke:#000000;stroke-width:0.036;stroke-miterlimit:10" />
        <path
           clip-rule="evenodd"
           d="M 107.123,37.278 C 106.619,37.242 106.078,37.458 105.504,37.926 C 104.928,38.394 103.524,39.294 103.524,40.086 C 103.379,40.734 104.172,41.814 104.784,41.922 C 105.323,41.85 106.188,41.022 106.837,40.266 C 107.376,39.402 108.097,37.89 108.167,37.386 C 108.13,36.846 107.554,37.134 107.123,37.278 z"
           i:knockout="Off"
           stroke-miterlimit="10"
           id="path99"
           style="fill:#ffd028;fill-rule:evenodd;stroke:#000000;stroke-width:0.036;stroke-miterlimit:10" />
        <path
           clip-rule="evenodd"
           d="M 97.079,23.274 C 96.683,23.742 96.359,24.462 96.251,25.434 C 96.107,26.37 95.927,28.098 96.539,28.818 C 97.043,29.394 98.843,29.646 99.455,29.286 C 99.959,28.854 99.923,27.342 99.779,26.262 C 99.527,25.038 98.519,22.806 98.159,22.338 C 97.654,21.834 97.294,22.662 97.079,23.274 z"
           i:knockout="Off"
           stroke-miterlimit="10"
           id="path101"
           style="fill-rule:evenodd;stroke:#000000;stroke-width:0.036;stroke-miterlimit:10" />
        <path
           clip-rule="evenodd"
           d="M 97.294,23.994 C 97.078,24.282 96.646,24.822 96.682,25.614 C 96.538,26.37 96.574,27.954 96.934,28.566 C 97.33,29.07 98.662,29.178 99.13,28.89 C 99.49,28.494 99.454,27.162 99.31,26.262 C 99.094,25.254 98.374,23.67 98.122,23.31 C 97.727,22.878 97.546,23.526 97.294,23.994 z"
           i:knockout="Off"
           stroke-miterlimit="10"
           id="path103"
           style="fill:#ffe42e;fill-rule:evenodd;stroke:#000000;stroke-width:0.036;stroke-miterlimit:10" />
        <path
           clip-rule="evenodd"
           d="M 110.687,15.606 C 111.011,15.894 111.371,16.11 112.054,16.398 C 112.665,16.506 113.818,16.902 114.394,16.614 C 114.898,16.29 115.115,15.102 115.042,14.706 C 114.718,14.346 113.854,14.022 113.026,14.13 C 112.126,14.166 110.577,14.418 110.182,14.742 C 109.679,14.958 110.398,15.246 110.687,15.606 z"
           i:knockout="Off"
           stroke-miterlimit="10"
           id="path105"
           style="fill-rule:evenodd;stroke:#000000;stroke-width:0.036;stroke-miterlimit:10" />
        <path
           clip-rule="evenodd"
           d="M 111.191,15.534 C 111.406,15.714 111.658,15.966 112.234,16.146 C 112.738,16.29 113.783,16.398 114.25,16.326 C 114.611,16.146 114.863,15.066 114.719,14.886 C 114.432,14.598 113.567,14.346 112.955,14.418 C 112.234,14.382 111.154,14.67 110.83,14.886 C 110.507,15.03 110.902,15.246 111.191,15.534 z"
           i:knockout="Off"
           stroke-miterlimit="10"
           id="path107"
           style="fill:#ffe42e;fill-rule:evenodd;stroke:#000000;stroke-width:0.036;stroke-miterlimit:10" />
        <path
           clip-rule="evenodd"
           d="M 104.818,9.774 C 104.531,9.342 104.351,8.874 103.847,8.514 C 103.234,8.118 102.298,7.326 101.722,7.506 C 101.002,7.578 100.39,8.514 100.426,9.054 C 100.498,9.522 101.254,9.99 102.118,10.314 C 102.839,10.602 104.493,10.746 104.997,10.746 C 105.394,10.494 104.962,10.17 104.818,9.774 z"
           i:knockout="Off"
           stroke-miterlimit="10"
           id="path109"
           style="fill-rule:evenodd;stroke:#000000;stroke-width:0.036;stroke-miterlimit:10" />
        <path
           clip-rule="evenodd"
           d="M 104.314,9.666 C 104.134,9.306 103.882,8.982 103.558,8.694 C 103.054,8.262 102.226,7.83 101.759,7.83 C 101.255,7.83 100.607,8.586 100.787,8.982 C 100.895,9.27 101.579,9.774 102.264,10.062 C 102.91,10.242 103.955,10.35 104.424,10.386 C 104.746,10.242 104.386,9.954 104.314,9.666 z"
           i:knockout="Off"
           stroke-miterlimit="10"
           id="path111"
           style="fill:#ffe42e;fill-rule:evenodd;stroke:#000000;stroke-width:0.036;stroke-miterlimit:10" />
        <path
           clip-rule="evenodd"
           d="M 89.698,11.25 C 89.77,10.818 90.058,10.35 90.022,9.702 C 89.878,8.982 89.878,7.758 89.446,7.398 C 89.014,7.002 87.646,7.002 87.43,7.398 C 87.106,7.686 87.142,8.658 87.538,9.486 C 87.79,10.206 88.618,11.646 89.05,12.006 C 89.411,12.258 89.446,11.538 89.698,11.25 z"
           i:knockout="Off"
           stroke-miterlimit="10"
           id="path113"
           style="fill-rule:evenodd;stroke:#000000;stroke-width:0.036;stroke-miterlimit:10" />
        <path
           clip-rule="evenodd"
           d="M 89.446,10.746 C 89.518,10.458 89.698,10.026 89.698,9.594 C 89.626,8.91 89.518,7.974 89.23,7.614 C 88.87,7.29 87.862,7.254 87.718,7.65 C 87.358,7.866 87.682,8.838 87.862,9.45 C 87.934,9.99 88.762,11.07 88.978,11.322 C 89.159,11.394 89.267,11.07 89.446,10.746 z"
           i:knockout="Off"
           stroke-miterlimit="10"
           id="path115"
           style="fill:#ffe42e;fill-rule:evenodd;stroke:#000000;stroke-width:0.036;stroke-miterlimit:10" />
        <path
           clip-rule="evenodd"
           d="M 73.606,8.838 C 73.534,9.306 73.498,9.702 73.786,10.422 C 73.966,10.998 74.434,12.114 75.046,12.402 C 75.55,12.546 76.738,12.15 76.954,11.754 C 76.99,11.25 76.738,10.422 76.198,9.81 C 75.658,9.09 74.362,8.082 73.966,7.902 C 73.499,7.758 73.606,8.298 73.606,8.838 z"
           i:knockout="Off"
           stroke-miterlimit="10"
           id="path117"
           style="fill-rule:evenodd;stroke:#000000;stroke-width:0.036;stroke-miterlimit:10" />
        <path
           clip-rule="evenodd"
           d="M 73.966,9.198 C 73.894,9.45 73.894,9.846 74.11,10.386 C 74.218,10.89 74.758,11.79 75.19,12.114 C 75.55,12.186 76.45,11.97 76.63,11.61 C 76.63,11.178 76.342,10.422 75.91,9.918 C 75.514,9.378 74.506,8.586 74.254,8.514 C 73.966,8.334 73.822,8.838 73.966,9.198 z"
           i:knockout="Off"
           stroke-miterlimit="10"
           id="path119"
           style="fill:#ffe42e;fill-rule:evenodd;stroke:#000000;stroke-width:0.036;stroke-miterlimit:10" />
        <path
           clip-rule="evenodd"
           d="M 67.559,15.786 C 67.343,15.39 66.983,14.958 66.479,14.634 C 65.795,14.202 64.895,13.626 64.319,13.734 C 63.635,13.878 63.059,14.742 63.131,15.354 C 63.131,15.786 64.031,16.218 64.859,16.506 C 65.543,16.722 67.307,16.758 67.775,16.758 C 68.17,16.506 67.774,16.182 67.559,15.786 z"
           i:knockout="Off"
           stroke-miterlimit="10"
           id="path121"
           style="fill-rule:evenodd;stroke:#000000;stroke-width:0.036;stroke-miterlimit:10" />
        <path
           clip-rule="evenodd"
           d="M 67.019,15.714 C 66.839,15.354 66.623,15.102 66.227,14.814 C 65.687,14.418 64.787,14.022 64.355,14.058 C 63.887,14.13 63.311,14.814 63.455,15.282 C 63.599,15.642 64.319,15.966 65.039,16.254 C 65.687,16.398 66.731,16.506 67.199,16.434 C 67.451,16.326 67.163,15.894 67.019,15.714 z"
           i:knockout="Off"
           stroke-miterlimit="10"
           id="path123"
           style="fill:#ffd028;fill-rule:evenodd;stroke:#000000;stroke-width:0.036;stroke-miterlimit:10" />
        <path
           clip-rule="evenodd"
           d="M 126.347,7.938 C 125.986,7.686 125.447,7.326 124.87,7.29 C 124.114,7.074 122.962,7.038 122.53,7.326 C 122.026,7.542 121.737,8.946 122.098,9.306 C 122.35,9.558 123.321,9.81 124.186,9.666 C 124.977,9.522 126.489,8.874 126.922,8.694 C 127.246,8.37 126.634,8.118 126.347,7.938 z"
           i:knockout="Off"
           stroke-miterlimit="10"
           id="path125"
           style="fill-rule:evenodd;stroke:#000000;stroke-width:0.036;stroke-miterlimit:10" />
        <path
           clip-rule="evenodd"
           d="M 125.806,8.046 C 125.519,7.758 125.158,7.65 124.726,7.578 C 124.15,7.398 123.107,7.362 122.71,7.614 C 122.313,7.866 122.026,8.694 122.386,9.126 C 122.638,9.342 123.466,9.414 124.187,9.342 C 124.798,9.126 125.951,8.838 126.275,8.622 C 126.49,8.37 126.058,8.226 125.806,8.046 z"
           i:knockout="Off"
           stroke-miterlimit="10"
           id="path127"
           style="fill:#ffe42e;fill-rule:evenodd;stroke:#000000;stroke-width:0.036;stroke-miterlimit:10" />
        <path
           clip-rule="evenodd"
           d="M 133.474,13.806 C 133.619,13.446 134.015,12.906 134.087,12.33 C 134.194,11.574 134.194,10.422 133.942,9.99 C 133.546,9.522 132.286,9.306 131.962,9.63 C 131.566,9.882 131.423,10.854 131.675,11.718 C 131.745,12.546 132.431,13.914 132.755,14.418 C 132.97,14.778 133.259,14.058 133.474,13.806 z"
           i:knockout="Off"
           stroke-miterlimit="10"
           id="path129"
           style="fill-rule:evenodd;stroke:#000000;stroke-width:0.036;stroke-miterlimit:10" />
        <path
           clip-rule="evenodd"
           d="M 133.33,13.302 C 133.475,13.086 133.726,12.582 133.799,12.186 C 133.836,11.646 133.836,10.458 133.654,10.17 C 133.295,9.702 132.431,9.666 132.179,9.918 C 131.818,10.17 131.89,10.998 131.997,11.718 C 132.069,12.366 132.466,13.374 132.79,13.77 C 132.935,13.986 133.115,13.554 133.33,13.302 z"
           i:knockout="Off"
           stroke-miterlimit="10"
           id="path131"
           style="fill:#ffe42e;fill-rule:evenodd;stroke:#000000;stroke-width:0.036;stroke-miterlimit:10" />
        <path
           clip-rule="evenodd"
           d="M 142.294,13.878 C 142.294,14.346 142.187,14.742 142.546,15.462 C 142.798,16.074 143.23,17.046 143.843,17.406 C 144.347,17.586 145.534,17.082 145.749,16.722 C 145.894,16.218 145.39,15.39 144.923,14.778 C 144.347,14.166 142.978,13.014 142.618,12.978 C 142.15,12.834 142.222,13.41 142.294,13.878 z"
           i:knockout="Off"
           stroke-miterlimit="10"
           id="path133"
           style="fill-rule:evenodd;stroke:#000000;stroke-width:0.036;stroke-miterlimit:10" />
        <path
           clip-rule="evenodd"
           d="M 142.691,14.238 C 142.619,14.49 142.582,14.886 142.871,15.426 C 142.943,15.93 143.592,16.866 143.986,17.118 C 144.275,17.226 145.355,16.902 145.427,16.578 C 145.534,16.182 144.993,15.354 144.634,14.922 C 144.165,14.346 143.23,13.662 142.943,13.554 C 142.619,13.374 142.582,13.878 142.691,14.238 z"
           i:knockout="Off"
           stroke-miterlimit="10"
           id="path135"
           style="fill:#ffe42e;fill-rule:evenodd;stroke:#000000;stroke-width:0.036;stroke-miterlimit:10" />
        <path
           clip-rule="evenodd"
           d="M 152.986,23.598 C 152.662,23.31 152.195,22.914 151.582,22.842 C 150.826,22.626 149.711,22.41 149.207,22.77 C 148.666,23.022 148.344,24.318 148.666,24.714 C 148.955,25.002 149.783,25.29 150.719,25.182 C 151.582,25.11 152.987,24.57 153.528,24.39 C 153.814,24.174 153.31,23.778 152.986,23.598 z"
           i:knockout="Off"
           stroke-miterlimit="10"
           id="path137"
           style="fill-rule:evenodd;stroke:#000000;stroke-width:0.036;stroke-miterlimit:10" />
        <path
           clip-rule="evenodd"
           d="M 152.447,23.67 C 152.123,23.418 151.906,23.238 151.402,23.13 C 150.826,22.914 149.783,22.842 149.386,23.058 C 148.954,23.202 148.63,24.246 148.954,24.534 C 149.278,24.75 149.927,24.966 150.755,24.894 C 151.511,24.678 152.409,24.57 152.878,24.282 C 153.023,24.066 152.734,23.814 152.447,23.67 z"
           i:knockout="Off"
           stroke-miterlimit="10"
           id="path139"
           style="fill:#ffe42e;fill-rule:evenodd;stroke:#000000;stroke-width:0.036;stroke-miterlimit:10" />
        <path
           clip-rule="evenodd"
           d="M 130.99,44.406 C 130.558,43.83 129.875,43.398 129.082,43.11 C 128.039,42.714 126.49,42.282 125.699,42.642 C 124.943,43.038 124.26,44.586 124.619,45.342 C 124.906,45.99 126.238,46.278 127.498,46.35 C 128.723,46.314 130.955,45.99 131.676,45.666 C 132.179,45.27 131.351,44.802 130.99,44.406 z"
           i:knockout="Off"
           stroke-miterlimit="10"
           id="path141"
           style="fill-rule:evenodd;stroke:#000000;stroke-width:0.036;stroke-miterlimit:10" />
        <path
           clip-rule="evenodd"
           d="M 130.234,44.442 C 129.91,44.046 129.478,43.686 128.795,43.506 C 127.967,43.11 126.49,42.822 125.879,43.074 C 125.158,43.362 124.799,44.514 125.088,45.126 C 125.303,45.522 126.6,45.918 127.608,45.918 C 128.508,45.81 130.2,45.63 130.739,45.378 C 131.099,45.09 130.558,44.73 130.234,44.442 z"
           i:knockout="Off"
           stroke-miterlimit="10"
           id="path143"
           style="fill:#ffe42e;fill-rule:evenodd;stroke:#000000;stroke-width:0.036;stroke-miterlimit:10" />
        <path
           clip-rule="evenodd"
           d="M 153.095,37.206 C 152.519,37.314 151.618,37.422 150.97,38.07 C 150.142,38.61 148.775,39.726 148.665,40.59 C 148.595,41.418 149.458,42.822 150.286,43.002 C 150.934,42.966 151.942,42.174 152.733,41.202 C 153.346,40.158 154.389,38.034 154.497,37.35 C 154.535,36.702 153.599,37.026 153.095,37.206 z"
           i:knockout="Off"
           stroke-miterlimit="10"
           id="path145"
           style="fill-rule:evenodd;stroke:#000000;stroke-width:0.036;stroke-miterlimit:10" />
        <path
           clip-rule="evenodd"
           d="M 152.699,37.854 C 152.267,37.818 151.691,38.034 151.115,38.502 C 150.431,38.97 149.207,39.87 149.099,40.662 C 148.954,41.31 149.745,42.39 150.359,42.498 C 150.898,42.462 151.763,41.598 152.41,40.878 C 152.951,40.014 153.635,38.502 153.779,37.998 C 153.707,37.494 153.203,37.674 152.699,37.854 z"
           i:knockout="Off"
           stroke-miterlimit="10"
           id="path147"
           style="fill:#ffe42e;fill-rule:evenodd;stroke:#000000;stroke-width:0.036;stroke-miterlimit:10" />
        <path
           clip-rule="evenodd"
           d="M 146.507,53.55 C 146.65,54.018 147.081,54.846 147.802,55.458 C 148.45,55.998 149.855,57.222 150.755,57.186 C 151.581,57.006 152.771,55.746 152.771,55.062 C 152.699,54.234 151.474,53.622 150.466,53.082 C 149.241,52.542 147.046,52.002 146.362,52.146 C 145.679,52.146 146.183,52.938 146.507,53.55 z"
           i:knockout="Off"
           stroke-miterlimit="10"
           id="path149"
           style="fill-rule:evenodd;stroke:#000000;stroke-width:0.036;stroke-miterlimit:10" />
        <path
           clip-rule="evenodd"
           d="M 147.226,53.802 C 147.371,54.162 147.515,54.738 148.199,55.242 C 148.775,55.782 149.998,56.646 150.756,56.718 C 151.33,56.646 152.34,55.602 152.268,55.098 C 152.159,54.486 150.971,53.802 150.215,53.442 C 149.315,52.974 147.588,52.686 147.119,52.722 C 146.578,52.686 146.939,53.37 147.226,53.802 z"
           i:knockout="Off"
           stroke-miterlimit="10"
           id="path151"
           style="fill:#ffe42e;fill-rule:evenodd;stroke:#000000;stroke-width:0.036;stroke-miterlimit:10" />
        <path
           clip-rule="evenodd"
           d="M 145.138,71.622 C 145.245,71.01 145.462,70.254 145.39,69.354 C 145.175,68.418 144.958,66.51 144.31,66.114 C 143.591,65.61 141.79,65.754 141.394,66.402 C 140.927,66.906 141.249,68.274 141.79,69.39 C 142.329,70.398 143.626,72.414 144.31,72.81 C 144.779,73.134 144.958,72.09 145.138,71.622 z"
           i:knockout="Off"
           stroke-miterlimit="10"
           id="path153"
           style="fill-rule:evenodd;stroke:#000000;stroke-width:0.036;stroke-miterlimit:10" />
        <path
           clip-rule="evenodd"
           d="M 144.742,70.974 C 144.779,70.542 145.066,69.966 144.924,69.246 C 144.815,68.454 144.455,66.834 143.986,66.474 C 143.41,65.97 142.078,66.222 141.791,66.69 C 141.539,67.158 141.684,68.346 142.223,69.282 C 142.619,70.11 143.627,71.514 144.131,71.838 C 144.49,72.126 144.562,71.334 144.742,70.974 z"
           i:knockout="Off"
           stroke-miterlimit="10"
           id="path155"
           style="fill:#ffe42e;fill-rule:evenodd;stroke:#000000;stroke-width:0.036;stroke-miterlimit:10" />
        <path
           clip-rule="evenodd"
           d="M 119.722,62.658 C 119.255,62.19 118.679,61.614 117.851,61.362 C 116.913,61.038 115.187,60.39 114.466,60.822 C 113.638,61.218 112.989,62.766 113.351,63.522 C 113.566,64.17 114.97,64.422 116.195,64.566 C 117.42,64.494 119.65,64.278 120.371,63.918 C 120.947,63.522 120.082,63.054 119.722,62.658 z"
           i:knockout="Off"
           stroke-miterlimit="10"
           id="path157"
           style="fill-rule:evenodd;stroke:#000000;stroke-width:0.036;stroke-miterlimit:10" />
        <path
           clip-rule="evenodd"
           d="M 118.966,62.694 C 118.642,62.334 118.21,61.866 117.527,61.722 C 116.699,61.326 115.222,61.074 114.611,61.254 C 113.927,61.542 113.459,62.694 113.783,63.306 C 113.998,63.738 115.295,64.062 116.303,64.134 C 117.203,64.134 118.895,63.846 119.436,63.666 C 119.902,63.414 119.146,62.946 118.966,62.694 z"
           i:knockout="Off"
           stroke-miterlimit="10"
           id="path159"
           style="fill:#ffe42e;fill-rule:evenodd;stroke:#000000;stroke-width:0.036;stroke-miterlimit:10" />
        <path
           clip-rule="evenodd"
           d="M 74.218,69.606 C 73.57,69.714 72.706,69.822 72.058,70.47 C 71.23,71.01 69.862,72.126 69.754,72.99 C 69.646,73.818 70.618,75.222 71.41,75.402 C 72.058,75.366 73.066,74.574 73.858,73.602 C 74.47,72.522 75.514,70.506 75.622,69.786 C 75.659,69.066 74.723,69.426 74.218,69.606 z"
           i:knockout="Off"
           stroke-miterlimit="10"
           id="path161"
           style="fill-rule:evenodd;stroke:#000000;stroke-width:0.036;stroke-miterlimit:10" />
        <path
           clip-rule="evenodd"
           d="M 73.822,70.29 C 73.39,70.254 72.814,70.47 72.238,70.938 C 71.554,71.406 70.33,72.306 70.222,73.098 C 70.078,73.746 70.87,74.826 71.482,74.934 C 72.022,74.862 72.886,74.034 73.534,73.278 C 74.074,72.414 74.758,70.902 74.902,70.398 C 74.831,69.858 74.327,70.146 73.822,70.29 z"
           i:knockout="Off"
           stroke-miterlimit="10"
           id="path163"
           style="fill:#ffe42e;fill-rule:evenodd;stroke:#000000;stroke-width:0.036;stroke-miterlimit:10" />
        <path
           clip-rule="evenodd"
           d="M 55.21,76.41 C 54.814,75.798 54.31,75.258 53.554,74.79 C 52.618,74.178 51.178,73.494 50.35,73.71 C 49.486,73.926 48.586,75.438 48.766,76.158 C 48.802,76.806 50.278,77.31 51.394,77.67 C 52.474,77.886 54.958,77.958 55.642,77.742 C 56.183,77.454 55.535,76.878 55.21,76.41 z"
           i:knockout="Off"
           stroke-miterlimit="10"
           id="path165"
           style="fill-rule:evenodd;stroke:#000000;stroke-width:0.036;stroke-miterlimit:10" />
        <path
           clip-rule="evenodd"
           d="M 54.455,76.302 C 54.203,75.834 53.843,75.438 53.231,75.114 C 52.475,74.718 51.071,73.89 50.423,74.142 C 49.703,74.286 49.091,75.438 49.271,76.05 C 49.379,76.482 50.711,77.022 51.611,77.274 C 52.547,77.454 54.203,77.526 54.779,77.346 C 55.247,77.094 54.634,76.698 54.455,76.302 z"
           i:knockout="Off"
           stroke-miterlimit="10"
           id="path167"
           style="fill:#ffe42e;fill-rule:evenodd;stroke:#000000;stroke-width:0.036;stroke-miterlimit:10" />
        <path
           clip-rule="evenodd"
           d="M 30.227,67.05 C 30.731,67.302 31.523,67.554 32.459,67.662 C 33.395,67.626 35.159,67.626 35.807,67.086 C 36.347,66.402 36.455,64.638 35.987,64.17 C 35.483,63.63 34.007,63.738 32.963,64.098 C 31.739,64.422 29.651,65.502 29.219,66.078 C 28.714,66.546 29.65,66.69 30.227,67.05 z"
           i:knockout="Off"
           stroke-miterlimit="10"
           id="path169"
           style="fill-rule:evenodd;stroke:#000000;stroke-width:0.036;stroke-miterlimit:10" />
        <path
           clip-rule="evenodd"
           d="M 30.946,66.762 C 31.306,66.834 31.81,67.266 32.602,67.23 C 33.322,67.194 34.942,67.158 35.518,66.726 C 35.95,66.186 35.986,64.89 35.626,64.494 C 35.158,64.098 33.862,64.242 32.998,64.53 C 31.99,64.746 30.55,65.61 30.19,66.006 C 29.758,66.294 30.515,66.546 30.946,66.762 z"
           i:knockout="Off"
           stroke-miterlimit="10"
           id="path171"
           style="fill:#ffe42e;fill-rule:evenodd;stroke:#000000;stroke-width:0.036;stroke-miterlimit:10" />
        <path
           clip-rule="evenodd"
           d="M 25.619,51.642 C 25.403,50.994 25.079,50.274 24.503,49.626 C 23.711,48.906 22.595,47.646 21.731,47.646 C 20.867,47.61 19.535,48.798 19.535,49.554 C 19.499,50.202 20.507,51.066 21.587,51.75 C 22.595,52.254 24.863,53.01 25.619,53.046 C 26.123,52.866 25.798,52.254 25.619,51.642 z"
           i:knockout="Off"
           stroke-miterlimit="10"
           id="path173"
           style="fill-rule:evenodd;stroke:#000000;stroke-width:0.036;stroke-miterlimit:10" />
        <path
           clip-rule="evenodd"
           d="M 24.898,51.354 C 24.718,50.814 24.538,50.346 24.07,49.806 C 23.458,49.266 22.342,48.042 21.694,48.078 C 20.974,48.006 19.966,48.87 20.038,49.554 C 20.002,50.094 21.046,50.85 21.91,51.426 C 22.666,51.93 24.358,52.254 24.898,52.398 C 25.258,52.398 25.079,51.678 24.898,51.354 z"
           i:knockout="Off"
           stroke-miterlimit="10"
           id="path175"
           style="fill:#ffe42e;fill-rule:evenodd;stroke:#000000;stroke-width:0.036;stroke-miterlimit:10" />
        <path
           clip-rule="evenodd"
           d="M 24.718,33.678 C 24.394,34.254 24.214,35.01 24.322,35.946 C 24.466,36.81 24.502,38.646 25.258,39.222 C 25.87,39.654 27.67,39.618 28.174,39.114 C 28.462,38.502 28.426,37.17 27.922,36.09 C 27.49,34.974 26.014,32.814 25.582,32.526 C 25.006,32.022 24.862,33.102 24.718,33.678 z"
           i:knockout="Off"
           stroke-miterlimit="10"
           id="path177"
           style="fill-rule:evenodd;stroke:#000000;stroke-width:0.036;stroke-miterlimit:10" />
        <path
           clip-rule="evenodd"
           d="M 25.079,34.326 C 24.863,34.722 24.719,35.298 24.791,36.054 C 24.827,36.81 25.043,38.358 25.583,38.898 C 26.123,39.258 27.311,39.222 27.779,38.79 C 27.995,38.286 27.851,36.954 27.491,36.162 C 27.095,35.19 26.087,33.786 25.727,33.498 C 25.258,33.102 25.223,33.93 25.079,34.326 z"
           i:knockout="Off"
           stroke-miterlimit="10"
           id="path179"
           style="fill:#ffe42e;fill-rule:evenodd;stroke:#000000;stroke-width:0.036;stroke-miterlimit:10" />
        <path
           clip-rule="evenodd"
           d="M 38.471,28.602 C 38.327,29.142 38.219,30.006 38.543,30.906 C 38.831,31.77 39.299,33.426 40.091,33.93 C 40.811,34.29 42.503,33.786 42.935,33.246 C 43.295,32.562 42.647,31.266 42.107,30.33 C 41.459,29.25 39.623,27.594 39.119,27.306 C 38.435,27.018 38.542,27.918 38.471,28.602 z"
           i:knockout="Off"
           stroke-miterlimit="10"
           id="path181"
           style="fill-rule:evenodd;stroke:#000000;stroke-width:0.036;stroke-miterlimit:10" />
        <path
           clip-rule="evenodd"
           d="M 38.975,29.178 C 38.795,29.574 38.759,30.15 39.011,30.906 C 39.155,31.698 39.731,33.03 40.343,33.534 C 40.919,33.822 42.143,33.462 42.503,32.994 C 42.755,32.454 42.107,31.194 41.675,30.474 C 41.135,29.61 39.839,28.494 39.443,28.242 C 38.938,27.99 39.01,28.674 38.975,29.178 z"
           i:knockout="Off"
           stroke-miterlimit="10"
           id="path183"
           style="fill:#ffd028;fill-rule:evenodd;stroke:#000000;stroke-width:0.036;stroke-miterlimit:10" />
        <path
           clip-rule="evenodd"
           d="M 63.238,25.686 C 62.77,25.686 62.23,25.83 61.762,26.262 C 61.15,26.586 60.25,27.342 60.178,27.99 C 60.106,28.638 60.754,29.43 61.294,29.682 C 61.798,29.682 62.41,29.034 62.986,28.422 C 63.418,27.63 64.102,26.334 64.21,25.794 C 64.247,25.362 63.599,25.47 63.238,25.686 z"
           i:knockout="Off"
           stroke-miterlimit="10"
           id="path185"
           style="fill-rule:evenodd;stroke:#000000;stroke-width:0.036;stroke-miterlimit:10" />
        <path
           clip-rule="evenodd"
           d="M 62.951,26.154 C 62.627,26.118 62.267,26.262 61.871,26.586 C 61.439,26.838 60.467,27.558 60.467,28.062 C 60.287,28.458 60.899,29.25 61.331,29.322 C 61.799,29.322 62.231,28.674 62.771,28.206 C 63.131,27.63 63.635,26.55 63.707,26.226 C 63.634,25.794 63.238,26.046 62.951,26.154 z"
           i:knockout="Off"
           stroke-miterlimit="10"
           id="path187"
           style="fill:#ffe42e;fill-rule:evenodd;stroke:#000000;stroke-width:0.036;stroke-miterlimit:10" />
        <path
           clip-rule="evenodd"
           d="M 54.13,31.554 C 53.662,31.554 53.122,31.698 52.654,32.13 C 52.042,32.454 51.142,33.21 51.07,33.858 C 50.998,34.506 51.646,35.298 52.186,35.55 C 52.69,35.55 53.302,34.902 53.878,34.29 C 54.31,33.498 54.994,32.202 55.102,31.662 C 55.139,31.23 54.49,31.338 54.13,31.554 z"
           i:knockout="Off"
           stroke-miterlimit="10"
           id="path189"
           style="fill-rule:evenodd;stroke:#000000;stroke-width:0.036;stroke-miterlimit:10" />
        <path
           clip-rule="evenodd"
           d="M 53.842,31.986 C 53.518,32.022 53.158,32.13 52.762,32.454 C 52.33,32.814 51.358,33.354 51.358,33.93 C 51.178,34.326 51.79,35.118 52.222,35.19 C 52.69,35.19 53.122,34.542 53.662,34.074 C 54.022,33.498 54.526,32.418 54.598,32.094 C 54.526,31.698 54.13,31.842 53.842,31.986 z"
           i:knockout="Off"
           stroke-miterlimit="10"
           id="path191"
           style="fill:#ffe42e;fill-rule:evenodd;stroke:#000000;stroke-width:0.036;stroke-miterlimit:10" />
        <path
           clip-rule="evenodd"
           d="M 68.747,36.594 C 68.675,36.954 68.495,37.53 68.747,38.178 C 68.855,38.826 69.287,39.906 69.755,40.302 C 70.187,40.446 71.447,40.302 71.735,39.87 C 71.915,39.402 71.555,38.502 71.195,37.854 C 70.619,37.134 69.683,35.874 69.215,35.73 C 68.818,35.514 68.71,36.126 68.747,36.594 z"
           i:knockout="Off"
           stroke-miterlimit="10"
           id="path193"
           style="fill-rule:evenodd;stroke:#000000;stroke-width:0.036;stroke-miterlimit:10" />
        <path
           clip-rule="evenodd"
           d="M 69.07,36.99 C 68.998,37.242 68.818,37.638 69.07,38.178 C 69.178,38.718 69.466,39.654 69.934,40.014 C 70.294,40.158 71.158,40.05 71.41,39.69 C 71.374,39.258 71.338,38.502 70.906,37.962 C 70.438,37.35 69.754,36.486 69.43,36.342 C 69.143,36.09 69.07,36.63 69.07,36.99 z"
           i:knockout="Off"
           stroke-miterlimit="10"
           id="path195"
           style="fill:#ffe42e;fill-rule:evenodd;stroke:#000000;stroke-width:0.036;stroke-miterlimit:10" />
        <path
           clip-rule="evenodd"
           d="M 88.258,46.098 C 87.79,46.062 87.25,46.314 86.782,46.71 C 86.17,47.142 85.27,47.718 85.198,48.438 C 85.126,48.978 85.774,49.95 86.314,50.094 C 86.818,50.166 87.43,49.482 88.006,48.87 C 88.438,48.114 89.122,46.71 89.23,46.206 C 89.267,45.774 88.619,45.882 88.258,46.098 z"
           i:knockout="Off"
           stroke-miterlimit="10"
           id="path197"
           style="fill-rule:evenodd;stroke:#000000;stroke-width:0.036;stroke-miterlimit:10" />
        <path
           clip-rule="evenodd"
           d="M 88.006,46.566 C 87.61,46.53 87.286,46.674 86.89,46.998 C 86.422,47.322 85.594,47.97 85.522,48.51 C 85.342,48.906 85.954,49.698 86.386,49.77 C 86.782,49.806 87.25,49.05 87.79,48.618 C 88.186,48.042 88.546,46.962 88.726,46.638 C 88.619,46.206 88.331,46.458 88.006,46.566 z"
           i:knockout="Off"
           stroke-miterlimit="10"
           id="path199"
           style="fill:#ffe42e;fill-rule:evenodd;stroke:#000000;stroke-width:0.036;stroke-miterlimit:10" />
        <path
           clip-rule="evenodd"
           d="M 87.61,30.186 C 87.502,29.718 87.646,29.25 87.358,28.638 C 87.07,27.918 86.494,26.946 86.026,26.694 C 85.378,26.37 84.334,26.982 84.154,27.414 C 83.938,27.81 84.406,28.674 84.982,29.322 C 85.45,29.862 86.818,30.978 87.286,31.122 C 87.646,31.158 87.574,30.654 87.61,30.186 z"
           i:knockout="Off"
           stroke-miterlimit="10"
           id="path201"
           style="fill-rule:evenodd;stroke:#000000;stroke-width:0.036;stroke-miterlimit:10" />
        <path
           clip-rule="evenodd"
           d="M 87.214,29.826 C 87.178,29.466 87.25,29.07 87.034,28.638 C 86.746,28.134 86.314,27.126 85.882,26.982 C 85.45,26.766 84.478,27.09 84.478,27.522 C 84.334,27.846 84.73,28.674 85.234,29.178 C 85.558,29.646 86.638,30.366 86.962,30.51 C 87.179,30.582 87.214,30.078 87.214,29.826 z"
           i:knockout="Off"
           stroke-miterlimit="10"
           id="path203"
           style="fill:#ffd028;fill-rule:evenodd;stroke:#000000;stroke-width:0.036;stroke-miterlimit:10" />
        <path
           clip-rule="evenodd"
           d="M 77.243,23.706 C 77.351,23.274 77.675,22.806 77.675,22.158 C 77.603,21.366 77.639,20.322 77.243,19.854 C 76.775,19.422 75.551,19.386 75.227,19.746 C 74.831,20.034 74.975,21.006 75.227,21.834 C 75.407,22.626 76.235,23.958 76.595,24.426 C 76.847,24.75 77.063,23.994 77.243,23.706 z"
           i:knockout="Off"
           stroke-miterlimit="10"
           id="path205"
           style="fill-rule:evenodd;stroke:#000000;stroke-width:0.036;stroke-miterlimit:10" />
        <path
           clip-rule="evenodd"
           d="M 77.063,23.202 C 77.207,22.842 77.315,22.59 77.387,22.05 C 77.351,21.474 77.279,20.394 77.027,20.07 C 76.667,19.638 75.695,19.746 75.479,19.998 C 75.083,20.214 75.371,21.186 75.515,21.798 C 75.695,22.374 76.235,23.49 76.559,23.742 C 76.703,23.85 76.918,23.526 77.063,23.202 z"
           i:knockout="Off"
           stroke-miterlimit="10"
           id="path207"
           style="fill:#ffd028;fill-rule:evenodd;stroke:#000000;stroke-width:0.036;stroke-miterlimit:10" />
        <path
           clip-rule="evenodd"
           d="M 51.827,19.314 C 51.647,18.81 51.575,18.378 51.215,17.874 C 50.711,17.262 50.027,16.362 49.451,16.29 C 48.839,16.182 47.831,16.938 47.795,17.442 C 47.651,17.946 48.407,18.558 49.091,19.134 C 49.739,19.494 51.179,20.25 51.755,20.286 C 52.15,20.214 51.898,19.71 51.827,19.314 z"
           i:knockout="Off"
           stroke-miterlimit="10"
           id="path209"
           style="fill-rule:evenodd;stroke:#000000;stroke-width:0.036;stroke-miterlimit:10" />
        <path
           clip-rule="evenodd"
           d="M 51.358,19.062 C 51.178,18.738 51.214,18.378 50.926,17.982 C 50.566,17.514 49.774,16.686 49.378,16.614 C 48.838,16.506 48.154,17.082 48.154,17.514 C 48.046,17.838 48.802,18.486 49.306,18.918 C 49.846,19.35 50.89,19.638 51.322,19.782 C 51.574,19.674 51.395,19.386 51.358,19.062 z"
           i:knockout="Off"
           stroke-miterlimit="10"
           id="path211"
           style="fill:#ffd028;fill-rule:evenodd;stroke:#000000;stroke-width:0.036;stroke-miterlimit:10" />
        <path
           clip-rule="evenodd"
           d="M 125.015,21.906 C 124.978,22.266 125.087,22.77 125.482,23.418 C 125.771,23.958 126.49,24.858 127.103,25.146 C 127.679,25.11 128.687,24.678 128.867,24.138 C 128.974,23.598 128.326,22.878 127.75,22.374 C 127.031,21.726 125.662,21.078 125.195,20.97 C 124.691,20.898 124.906,21.402 125.015,21.906 z"
           i:knockout="Off"
           stroke-miterlimit="10"
           id="path213"
           style="fill-rule:evenodd;stroke:#000000;stroke-width:0.036;stroke-miterlimit:10" />
        <path
           clip-rule="evenodd"
           d="M 125.447,22.23 C 125.482,22.518 125.41,22.842 125.806,23.346 C 126.13,23.778 126.599,24.642 127.21,24.822 C 127.606,24.93 128.362,24.354 128.507,24.066 C 128.542,23.526 127.931,23.022 127.497,22.554 C 126.993,22.086 125.843,21.51 125.591,21.51 C 125.195,21.402 125.375,21.87 125.447,22.23 z"
           i:knockout="Off"
           stroke-miterlimit="10"
           id="path215"
           style="fill:#ffe42e;fill-rule:evenodd;stroke:#000000;stroke-width:0.036;stroke-miterlimit:10" />
        <path
           clip-rule="evenodd"
           d="M 19.57,111.546 L 18.454,113.454 L 21.442,114.57 L 19.57,111.546 z"
           i:knockout="Off"
           stroke-miterlimit="10"
           id="path217"
           style="fill-rule:evenodd;stroke:#000000;stroke-width:0.036;stroke-miterlimit:10" />
        <path
           clip-rule="evenodd"
           d="M 33.862,120.978 L 32.746,122.85 L 35.734,123.966 L 33.862,120.978 z"
           i:knockout="Off"
           stroke-miterlimit="10"
           id="path219"
           style="fill-rule:evenodd;stroke:#000000;stroke-width:0.036;stroke-miterlimit:10" />
        <path
           clip-rule="evenodd"
           d="M 27.851,121.734 L 26.735,123.605 L 29.723,124.721 L 27.851,121.734 z"
           i:knockout="Off"
           stroke-miterlimit="10"
           id="path221"
           style="fill-rule:evenodd;stroke:#000000;stroke-width:0.036;stroke-miterlimit:10" />
        <path
           clip-rule="evenodd"
           d="M 56.074,140.922 L 54.922,142.794 L 57.946,143.91 L 56.074,140.922 z"
           i:knockout="Off"
           stroke-miterlimit="10"
           id="path223"
           style="fill-rule:evenodd;stroke:#000000;stroke-width:0.036;stroke-miterlimit:10" />
        <path
           clip-rule="evenodd"
           d="M 100.822,126.234 L 99.706,128.105 L 102.729,129.257 L 100.822,126.234 z"
           i:knockout="Off"
           stroke-miterlimit="10"
           id="path225"
           style="fill-rule:evenodd;stroke:#000000;stroke-width:0.036;stroke-miterlimit:10" />
        <path
           clip-rule="evenodd"
           d="M 136.57,141.678 L 135.455,143.55 L 138.443,144.666 L 136.57,141.678 z"
           i:knockout="Off"
           stroke-miterlimit="10"
           id="path227"
           style="fill-rule:evenodd;stroke:#000000;stroke-width:0.036;stroke-miterlimit:10" />
        <path
           clip-rule="evenodd"
           d="M 153.886,130.374 L 152.771,132.246 L 155.759,133.397 L 153.886,130.374 z"
           i:knockout="Off"
           stroke-miterlimit="10"
           id="path229"
           style="fill-rule:evenodd;stroke:#000000;stroke-width:0.036;stroke-miterlimit:10" />
        <path
           clip-rule="evenodd"
           d="M 171.958,119.07 L 170.806,120.977 L 173.829,122.093 L 171.958,119.07 z"
           i:knockout="Off"
           stroke-miterlimit="10"
           id="path231"
           style="fill-rule:evenodd;stroke:#000000;stroke-width:0.036;stroke-miterlimit:10" />
        <path
           clip-rule="evenodd"
           d="M 85.415,143.91 L 80.519,144.306 L 80.519,147.69 L 83.147,145.422 L 85.415,147.294 L 85.415,143.91 z"
           i:knockout="Off"
           stroke-miterlimit="10"
           id="path233"
           style="fill-rule:evenodd;stroke:#000000;stroke-width:0.036;stroke-miterlimit:10" />
        <path
           clip-rule="evenodd"
           d="M 89.159,128.105 L 84.263,128.501 L 84.263,131.885 L 86.927,129.617 L 89.159,131.489 L 89.159,128.105 z"
           i:knockout="Off"
           stroke-miterlimit="10"
           id="path235"
           style="fill-rule:evenodd;stroke:#000000;stroke-width:0.036;stroke-miterlimit:10" />
        <path
           clip-rule="evenodd"
           d="M 37.354,127.313 L 34.294,131.129 L 36.742,133.433 L 36.922,129.977 L 39.838,129.618 L 37.354,127.313 z"
           i:knockout="Off"
           stroke-miterlimit="10"
           id="path237"
           style="fill-rule:evenodd;stroke:#000000;stroke-width:0.036;stroke-miterlimit:10" />
        <path
           clip-rule="evenodd"
           d="M 123.142,144.234 L 120.081,148.049 L 122.53,150.389 L 122.71,146.897 L 125.626,146.574 L 123.142,144.234 z"
           i:knockout="Off"
           stroke-miterlimit="10"
           id="path239"
           style="fill-rule:evenodd;stroke:#000000;stroke-width:0.036;stroke-miterlimit:10" />
        <path
           clip-rule="evenodd"
           d="M 166.054,124.649 L 162.958,128.502 L 165.442,130.806 L 165.587,127.35 L 168.503,126.991 L 166.054,124.649 z"
           i:knockout="Off"
           stroke-miterlimit="10"
           id="path241"
           style="fill-rule:evenodd;stroke:#000000;stroke-width:0.036;stroke-miterlimit:10" />
        <path
           clip-rule="evenodd"
           d="M 51.179,131.49 L 48.155,132.246 L 48.911,133.362 L 51.539,134.118 L 51.179,131.49 z"
           i:knockout="Off"
           stroke-miterlimit="10"
           id="path243"
           style="fill-rule:evenodd;stroke:#000000;stroke-width:0.036;stroke-miterlimit:10" />
        <path
           clip-rule="evenodd"
           d="M 51.539,137.897 L 48.551,138.654 L 49.307,139.769 L 51.935,140.525 L 51.539,137.897 z"
           i:knockout="Off"
           stroke-miterlimit="10"
           id="path245"
           style="fill-rule:evenodd;stroke:#000000;stroke-width:0.036;stroke-miterlimit:10" />
        <path
           clip-rule="evenodd"
           d="M 69.25,136.782 L 66.226,137.502 L 66.982,138.654 L 69.61,139.41 L 69.25,136.782 z"
           i:knockout="Off"
           stroke-miterlimit="10"
           id="path247"
           style="fill-rule:evenodd;stroke:#000000;stroke-width:0.036;stroke-miterlimit:10" />
        <path
           clip-rule="evenodd"
           d="M 74.11,146.538 L 71.122,147.294 L 71.878,148.446 L 74.506,149.166 L 74.11,146.538 z"
           i:knockout="Off"
           stroke-miterlimit="10"
           id="path249"
           style="fill-rule:evenodd;stroke:#000000;stroke-width:0.036;stroke-miterlimit:10" />
        <path
           clip-rule="evenodd"
           d="M 86.53,148.806 L 83.542,149.562 L 84.298,150.678 L 86.926,151.434 L 86.53,148.806 z"
           i:knockout="Off"
           stroke-miterlimit="10"
           id="path251"
           style="fill-rule:evenodd;stroke:#000000;stroke-width:0.036;stroke-miterlimit:10" />
        <path
           clip-rule="evenodd"
           d="M 95.566,141.642 L 92.542,142.398 L 93.298,143.55 L 95.926,144.306 L 95.566,141.642 z"
           i:knockout="Off"
           stroke-miterlimit="10"
           id="path253"
           style="fill-rule:evenodd;stroke:#000000;stroke-width:0.036;stroke-miterlimit:10" />
        <path
           clip-rule="evenodd"
           d="M 100.462,148.806 L 97.438,149.562 L 98.194,150.678 L 100.822,151.434 L 100.462,148.806 z"
           i:knockout="Off"
           stroke-miterlimit="10"
           id="path255"
           style="fill-rule:evenodd;stroke:#000000;stroke-width:0.036;stroke-miterlimit:10" />
        <path
           clip-rule="evenodd"
           d="M 109.498,142.794 L 106.475,143.55 L 107.231,144.666 L 109.86,145.422 L 109.498,142.794 z"
           i:knockout="Off"
           stroke-miterlimit="10"
           id="path257"
           style="fill-rule:evenodd;stroke:#000000;stroke-width:0.036;stroke-miterlimit:10" />
        <path
           clip-rule="evenodd"
           d="M 115.115,148.05 L 112.127,148.806 L 112.883,149.922 L 115.512,150.678 L 115.115,148.05 z"
           i:knockout="Off"
           stroke-miterlimit="10"
           id="path259"
           style="fill-rule:evenodd;stroke:#000000;stroke-width:0.036;stroke-miterlimit:10" />
        <path
           clip-rule="evenodd"
           d="M 150.107,137.538 L 147.119,138.258 L 147.875,139.41 L 150.504,140.166 L 150.107,137.538 z"
           i:knockout="Off"
           stroke-miterlimit="10"
           id="path261"
           style="fill-rule:evenodd;stroke:#000000;stroke-width:0.036;stroke-miterlimit:10" />
        <path
           clip-rule="evenodd"
           d="M 180.958,111.582 L 177.97,112.302 L 178.726,113.454 L 181.355,114.21 L 180.958,111.582 z"
           i:knockout="Off"
           stroke-miterlimit="10"
           id="path263"
           style="fill-rule:evenodd;stroke:#000000;stroke-width:0.036;stroke-miterlimit:10" />
        <path
           clip-rule="evenodd"
           d="M 137.326,136.025 L 134.303,136.782 L 135.059,137.897 L 137.688,138.654 L 137.326,136.025 z"
           i:knockout="Off"
           stroke-miterlimit="10"
           id="path265"
           style="fill-rule:evenodd;stroke:#000000;stroke-width:0.036;stroke-miterlimit:10" />
        <path
           clip-rule="evenodd"
           d="M 60.935,133.002 L 57.947,133.758 L 58.703,134.874 L 61.331,135.63 L 60.935,133.002 z"
           i:knockout="Off"
           stroke-miterlimit="10"
           id="path267"
           style="fill-rule:evenodd;stroke:#000000;stroke-width:0.036;stroke-miterlimit:10" />
        <path
           clip-rule="evenodd"
           d="M 14.674,105.93 L 11.65,106.686 L 12.406,107.802 L 15.034,108.558 L 14.674,105.93 z"
           i:knockout="Off"
           stroke-miterlimit="10"
           id="path269"
           style="fill-rule:evenodd;stroke:#000000;stroke-width:0.036;stroke-miterlimit:10" />
      </g>
    </g>
  </g>
</svg>
