<?xml version="1.0" encoding="UTF-8" standalone="no"?>
<!-- Created with Inkscape (http://www.inkscape.org/) -->

<svg
   xmlns:dc="http://purl.org/dc/elements/1.1/"
   xmlns:cc="http://creativecommons.org/ns#"
   xmlns:rdf="http://www.w3.org/1999/02/22-rdf-syntax-ns#"
   xmlns:svg="http://www.w3.org/2000/svg"
   xmlns="http://www.w3.org/2000/svg"
   xmlns:sodipodi="http://sodipodi.sourceforge.net/DTD/sodipodi-0.dtd"
   xmlns:inkscape="http://www.inkscape.org/namespaces/inkscape"
   height="20.000013"
   id="svg17669"
   inkscape:version="0.47 r22583"
   sodipodi:docname="Pizza.svg"
   sodipodi:version="0.32"
   width="22.000057"
   version="1.1">
  <metadata
     id="metadata4787">
    <rdf:RDF>
      <cc:Work
         rdf:about="">
        <dc:title>Pizza Slice</dc:title>
        <dc:description>Pizza Slice</dc:description>
        <dc:subject>
          <rdf:Bag>
            <rdf:li>food</rdf:li>
            <rdf:li>ãâº</rdf:li>
          </rdf:Bag>
        </dc:subject>
        <dc:publisher>
          <cc:Agent
             rdf:about="http://www.openclipart.org/">
            <dc:title>Open Clip Art Library</dc:title>
          </cc:Agent>
        </dc:publisher>
        <dc:creator>
          <cc:Agent>
            <dc:title>Fco. Andrade</dc:title>
          </cc:Agent>
        </dc:creator>
        <dc:rights>
          <cc:Agent>
            <dc:title>Fco. Andrade</dc:title>
          </cc:Agent>
        </dc:rights>
        <dc:date>Fco. Andrade</dc:date>
        <dc:format>image/svg+xml</dc:format>
        <dc:type
           rdf:resource="http://purl.org/dc/dcmitype/StillImage" />
        <cc:license
           rdf:resource="http://web.resource.org/cc/PublicDomain" />
        <dc:language>en</dc:language>
      </cc:Work>
      <cc:License
         rdf:about="http://web.resource.org/cc/PublicDomain">
        <cc:permits
           rdf:resource="http://web.resource.org/cc/Reproduction" />
        <cc:permits
           rdf:resource="http://web.resource.org/cc/Distribution" />
        <cc:permits
           rdf:resource="http://web.resource.org/cc/DerivativeWorks" />
      </cc:License>
    </rdf:RDF>
  </metadata>
  <defs
     id="defs17671">
    <inkscape:perspective
       sodipodi:type="inkscape:persp3d"
       inkscape:vp_x="0 : 230.24411 : 1"
       inkscape:vp_y="0 : 1000 : 0"
       inkscape:vp_z="605.12598 : 230.24411 : 1"
       inkscape:persp3d-origin="302.56299 : 153.49607 : 1"
       id="perspective17" />
  </defs>
  <sodipodi:namedview
     bordercolor="#666666"
     borderopacity="1.0"
     id="base"
     inkscape:current-layer="g17686"
     inkscape:cx="1.6662448"
     inkscape:cy="19.821822"
     inkscape:document-units="px"
     inkscape:pageopacity="0.0"
     inkscape:pageshadow="2"
     inkscape:window-height="951"
     inkscape:window-width="1309"
     inkscape:window-x="0"
     inkscape:window-y="5"
     inkscape:zoom="16"
     pagecolor="#ffffff"
     showgrid="false"
     inkscape:window-maximized="0" />
  <g
     id="layer1"
     inkscape:groupmode="layer"
     inkscape:label="Layer 1"
     transform="translate(-6.7228208,-431.14196)">
    <g
       id="g17686"
       transform="matrix(1.3583,0,0,1.272529,-281.2623,-453.2884)">
      <path
         d="m 215.14665,705.87994 c 4.30914,-0.57619 8.61828,-1.15238 12.92742,-1.72857 0.0296,-0.49641 -0.25173,-0.93963 -0.3776,-1.40945 -1.56965,-2.96072 -3.53912,-5.65551 -7.04123,-7.44613 -1.88802,-0.14183 -1.71032,0.56732 -1.93244,2.3668 2.0361,1.39172 5.09396,1.79949 5.84177,5.2123 -2.62843,0.75348 -5.25686,1.50695 -7.88528,2.26043 -0.3702,-0.23934 -0.74041,-0.23934 -1.11061,-0.0798 -0.14067,0.2748 -0.28135,0.5496 -0.42203,0.8244 z"
         id="path10380"
         sodipodi:nodetypes="ccccccccc"
         style="opacity:0.52657004;fill:#cd5500;fill-opacity:1;fill-rule:evenodd;stroke:none" />
      <path
         d="m 218.74568,697.76106 c 0.31208,0.0897 0.62415,0.17935 0.93623,0.26902 2.54653,0.94155 4.71857,2.60047 4.88709,4.84225 -0.17476,0.37364 -0.44314,0.65759 -0.52428,1.1209 -0.20597,1.65892 -0.58046,1.47958 -0.8426,0.53803 -0.025,-1.12837 -0.16228,-1.22551 -0.58046,-1.03123 -0.66784,0.44836 -1.8038,0.47078 -2.73378,0.47078 -0.11859,0.78462 -0.79891,0.6277 -1.19837,0.94155 -0.20597,2.85454 -0.48684,2.74992 -0.8426,0.0224 -0.67408,0.32879 -1.42306,0.0299 -2.13459,0.0448 -0.54926,1.30771 -0.92999,1.42727 -1.47924,0.89672 -0.27462,1.24045 0.59294,1.7187 -0.63663,1.2554 -1.14844,-0.47078 0.34796,2.42673 0.0796,3.28702 -0.41203,0.32131 -1.4964,-1.25821 -1.05325,-3.39911 -0.56798,-1.1732 -0.44315,-1.69629 0.28086,-2.15212 0.13107,-1.0088 0.63664,-1.36749 1.17965,-1.61408 0.31831,-0.31385 0.63663,-0.6277 0.95494,-0.94155 0.39946,-1.14331 0.91126,-1.502 1.59159,-1.74859 0.0624,-1.33013 0.55549,-1.56178 1.19836,-1.77102 0.21222,-0.52308 0.4806,-0.88924 0.9175,-1.03122 z"
         id="path10382"
         sodipodi:nodetypes="cccccccccccccccccccc"
         style="fill:#fae25e;fill-opacity:1;fill-rule:evenodd;stroke:none" />
      <path
         d="m 220.08512,695.01794 c -0.37033,-0.003 -0.73212,0.0616 -1.07983,0.19868 -0.55709,0.83021 -0.28589,1.59778 -0.4289,2.39676 -0.48593,0.16014 -0.68862,0.58706 -0.97231,1.06197 -0.96669,0.40121 -1.08409,0.6562 -1.20137,1.71117 -0.7968,0.23898 -1.10761,0.72011 -1.60105,1.95183 -0.45849,0.1757 -0.59371,0.37658 -0.82974,0.89126 -0.80489,-0.1031 -1.00319,0.54323 -1.20137,1.5055 -1.00541,0.6295 -0.89882,1.67181 -0.28632,2.39816 -0.0286,0.59354 -0.0567,1.1862 -0.0853,1.77973 0.43739,2.12937 2.16943,2.68495 1.37316,0.0686 -0.1144,-0.58212 -0.65984,-1.16403 -0.34358,-1.74615 0.53823,0.40541 0.81392,0.66598 0.887,-0.88987 0.51887,0.20427 0.75567,0.10225 0.88701,-0.11473 l 2.63062,-0.35678 c 0,0.37383 0,0.74829 0,1.12212 0.11122,1.21896 0.74875,0.45201 1.00153,-0.41135 -0.0206,-0.27985 -0.0413,-0.55965 -0.0619,-0.8395 l 4.41865,-0.60163 c 0.0706,0.19768 0.18631,0.34127 0.39033,0.37917 0.36839,-0.0359 0.50161,-0.2418 0.55277,-0.5079 l 3.87991,-0.52748 c 0.20597,-0.30638 0.29951,-0.50119 0.0561,-0.62822 l -3.90328,0.57925 c -6.7e-4,-0.22726 0.004,-0.44949 0.0725,-0.62683 0.1063,-0.60461 0.39426,-0.87017 0.74326,-1.23266 0.20483,-0.24834 0.44347,-0.29616 0.46629,-0.68978 0.85314,0.17346 1.63259,0.99203 2.54531,1.87207 0.18247,-0.28568 0.0856,0.1186 0.12271,-0.44493 -2.37702,-4.94804 -5.4398,-8.27783 -8.03211,-8.29842 z m -0.33307,0.5065 c 0.13532,-0.007 0.29509,0.0142 0.48382,0.0686 2.74513,0.64498 5.18657,3.73538 7.26431,7.01958 -0.10838,0.88643 -1.8143,-2.10062 -2.56985,-0.75414 -0.0191,0.12555 -0.34143,0.51662 -0.46162,1.19908 -0.51502,0.22492 -0.57245,0.59565 -0.63808,1.39776 0.0328,0.84723 -0.0749,0.80451 -0.18932,0.81711 -0.11122,0.0122 -0.20411,0.012 -0.26528,-0.71497 l -0.002,0 c -3.3e-4,-0.007 0.001,-0.55952 0.0362,-0.88287 0.0952,-0.39175 -0.1241,-0.6373 -0.4289,-0.65061 -0.30507,0.1598 -0.60997,0.31871 -0.91505,0.47851 -0.22881,0.0228 -0.45718,0.0457 -0.68599,0.0686 -0.29555,-0.18645 -0.55102,-0.033 -0.88701,0.24065 -0.23834,-0.0571 -0.47687,-0.11502 -0.71521,-0.17209 -0.0763,0.23969 -0.15278,0.47947 -0.22905,0.71917 -0.29555,0.0799 -0.59029,0.16075 -0.88584,0.24065 -0.0318,0.2239 -0.0641,0.4477 -0.0958,0.6716 l -0.0725,0.51209 c -0.0298,0.21037 -0.0601,0.42065 -0.09,0.63102 -0.11958,0.81525 -0.19602,0.35689 -0.30034,-0.57785 l -0.0701,-0.59464 c 0,0 -0.0348,-0.36626 -0.0584,-0.57506 -0.11441,-0.13697 -0.22801,-0.27298 -0.34242,-0.40995 -0.21927,0.20545 -0.43867,0.41017 -0.65794,0.61563 -0.15861,0.10826 -0.35778,0.14463 -0.65795,0.035 0.21233,0.5984 0.50489,0.59185 1.00036,0.34279 0.19428,-0.0809 0.36349,-0.0879 0.4546,0.13992 l -2.40975,0.35678 c 0.0738,-0.33039 0.1467,-0.6656 0.46863,-0.73735 -0.41342,-0.0779 -0.64599,0.45418 -0.95829,0.93324 -0.26557,-0.0245 -0.4813,-0.30561 -0.67197,-0.41975 -0.38801,0.3355 -0.35107,0.50159 -0.31437,1.36978 -0.24788,-0.0114 -0.47633,-0.14324 -0.74443,-0.0336 -0.10227,0.54926 -0.24494,0.92933 0.0573,1.57545 0.66826,1.70079 0.40622,2.69903 -0.54343,0.30782 -0.0698,-0.3842 0.0382,-0.6624 0.0573,-0.99341 0.20802,-0.76441 -0.33138,-1.38399 -0.28515,-1.71257 0.0361,-0.41506 0.23301,-0.78141 0.71404,-1.02698 0.18142,-1.00067 0.34256,-1.10487 1.02958,-1.40336 0.25047,-0.52749 0.48133,-0.76464 1.11606,-0.85629 0.19123,-1.30574 0.62449,-1.71554 1.54378,-1.88327 0.15835,-0.13107 1.25127,0.22445 1.82777,0.60584 0.25079,-0.21283 1.10368,-0.59833 1.80906,-0.37358 0.19353,-0.27993 0.32651,-0.50886 0.9431,-0.70797 -0.15932,-0.0277 -0.039,0.006 -0.38448,-0.0993 -0.73866,-1.13677 -1.55015,-0.91041 -1.94346,-0.88847 -0.0751,-0.15788 -0.33249,-0.41634 -0.68717,-0.51349 0.15088,0.30637 0.48525,0.59393 0.26411,0.60863 -0.22113,0.0147 -0.88462,0.54078 -1.04593,1.21168 -0.27356,-0.27433 -0.76485,-0.0759 -0.74093,-0.25605 0.11457,-0.86258 0.67573,-1.29825 1.07399,-1.43694 0.15166,-0.49634 0.58579,-0.96768 1.00036,-1.19768 0.13926,-0.57209 0.0764,-1.09613 0.11453,-1.64401 0.096,-0.36345 0.28353,-0.63107 0.6895,-0.65061 z m 3.0864,8.18369 c 0.15716,0.004 0.23368,-0.0155 0.22905,0.37637 0.008,0.17204 0.0133,0.34683 0.0257,0.51349 l -4.06338,0.60444 c 0.0682,-0.0528 0.13636,-0.10531 0.20451,-0.15811 0.58821,0.0751 0.73132,-0.14048 0.91505,-0.71916 0.53013,0.26185 0.89929,0.13659 1.28785,-0.37638 0.58849,0.23487 0.93406,0.22665 1.40121,-0.24065 z"
         id="path10384"
         sodipodi:nodetypes="ccccccccccccccccccccccccccccccccccccscccccccccccccccccccccccccccccccccccccccccscscccccccccccc"
         style="fill:#000000;fill-opacity:1;fill-rule:evenodd;stroke:none" />
      <path
         d="m 224.15582,701.57818 c 0.10786,-0.34705 0.21572,-0.6941 0.32358,-1.04116 -0.16179,0 -0.32358,0 -0.48537,0 0.1146,-0.25827 0.2292,-0.51654 0.34381,-0.77481 -0.28988,0.0565 -0.57976,0.11299 -0.86963,0.16949 0.10786,-0.33898 0.21572,-0.67797 0.32358,-1.01695 -0.31684,0.21792 -0.63368,0.43584 -0.95052,0.65375 0.0876,-0.36319 0.17527,-0.72639 0.26291,-1.08958 -0.22247,0.1937 -0.44493,0.3874 -0.66739,0.58111 0.0674,-0.3067 0.13482,-0.6134 0.20224,-0.9201 -0.18876,0.16949 -0.37752,0.33899 -0.56627,0.50848 -0.007,-0.29863 -0.0135,-0.59726 -0.0202,-0.89588 -0.17527,0.33091 -0.35054,0.66182 -0.52582,0.99273 -0.0539,-0.39548 -0.10786,-0.79096 -0.16179,-1.18644 -0.14157,0.19371 -0.28313,0.38741 -0.4247,0.58111 -0.0337,-0.29055 -0.0674,-0.58111 -0.10112,-0.87167 -0.0674,0.15335 -0.13483,0.3067 -0.20224,0.46005 -0.10786,-0.25827 -0.21572,-0.51654 -0.32358,-0.77482 -0.0674,0.20985 -0.13483,0.4197 -0.20224,0.62954 -0.14157,-0.17756 -0.28314,-0.35512 -0.42471,-0.53268 0,0.23406 0,0.46812 0,0.70218 -0.13482,0.16142 -0.26965,0.32284 -0.40447,0.48426 0.27639,0.0242 0.55278,0.0484 0.82918,0.0726 0.32358,0.22599 0.64716,0.45198 0.97075,0.67797 -0.16854,0.13721 -0.33707,0.27441 -0.5056,0.41162 1.19995,-0.18563 1.61117,0.113 1.96172,0.89588 0.92356,0.16142 1.28085,0.49234 1.61791,1.28329 z"
         id="path2358"
         sodipodi:nodetypes="ccccccccccccccccccccccccccc"
         style="fill:#000000;fill-opacity:1;fill-rule:evenodd;stroke:none" />
      <path
         d="m 223.83875,702.1998 c -0.8426,-0.0224 -1.57286,0.44836 -2.07842,0.8743 -0.70529,-0.3288 -1.20461,-0.54551 -2.22822,-0.17935 0.21221,-0.22418 0.42443,-0.44835 0.63664,-0.67253 -0.49308,-0.35122 -0.76147,-0.20924 -1.1422,-0.31385 0.49308,-0.0822 1.02361,-0.38858 1.42306,0.15692 1.16716,-1.21056 2.40922,-1.52441 2.8274,0 0.18725,0.0448 0.37449,0.0897 0.56174,0.13451 z"
         id="path10387"
         sodipodi:nodetypes="cccccccc"
         style="fill:#000000;fill-opacity:1;fill-rule:evenodd;stroke:none" />
      <path
         d="m 215.37528,702.80508 c 0.181,0.11209 0.47435,0.17934 0.54301,0.33627 -0.2247,0.14198 -0.37449,0.37363 -0.44939,0.6277 -0.34328,-0.007 -0.72402,0.18681 -1.02985,0.51561 0.62415,-0.0523 1.2483,-0.19429 1.87245,0.17934 0.44939,-0.36616 0.78643,-0.55297 1.34816,-0.56044 0.32456,-0.7099 0.34953,-0.94903 1.47924,-0.98639 -0.52429,-0.31385 -0.93623,-0.35869 -1.34816,0.0672 -0.18101,-0.14945 -0.36201,-0.2989 -0.54301,-0.44835 0.24341,-0.3288 0.48683,-0.65759 0.73025,-0.98639 -0.56798,0.19429 -0.96743,0.45583 -1.19837,1.05364 -0.22469,-0.0448 -0.41194,0.0448 -0.56173,0.20176 -0.28087,-0.0897 -0.56174,-0.0897 -0.8426,0 z"
         id="path3816"
         sodipodi:nodetypes="ccccccccccccc"
         style="fill:#000000;fill-opacity:1;fill-rule:evenodd;stroke:none" />
      <path
         d="m 215.91297,703.84554 c 0.16659,0.0355 0.33318,0.11081 0.49977,0.30583 0.30727,-0.31469 0.61454,-0.46982 1.02176,-0.58506 0.13697,-0.87758 -1.2809,-0.58505 -1.52153,0.27923 z"
         id="path10392"
         sodipodi:nodetypes="cccc"
         style="fill:#c81919;fill-opacity:1;fill-rule:evenodd;stroke:none" />
      <path
         d="m 217.9898,700.74742 c 0.1962,0.0399 0.40352,0.10637 0.5553,0.27923 0.559,-0.19058 0.96252,-0.51414 1.71033,-0.25263 0.11846,-0.1374 0.27024,-0.23491 0.45535,-0.25264 -0.64415,-1.23659 -2.0102,-0.83769 -2.72098,0.22604 z"
         id="path10391"
         sodipodi:nodetypes="ccccc"
         style="fill:#c81919;fill-opacity:1;fill-rule:evenodd;stroke:none" />
      <path
         d="m 220.74409,702.31643 c 0.3702,0.0443 0.69598,0.11524 1.04397,0.33242 0.3739,-0.32799 0.59232,-0.48312 1.08839,-0.62495 -0.45535,-1.21886 -1.63259,-0.61608 -2.13236,0.29253 z"
         id="path10393"
         sodipodi:nodetypes="cccc"
         style="fill:#c81919;fill-opacity:1;fill-rule:evenodd;stroke:none" />
    </g>
  </g>
</svg>
