<?xml version="1.0" encoding="UTF-8" standalone="no"?>
<!-- Created with Inkscape (http://www.inkscape.org/) -->

<svg
   xmlns:dc="http://purl.org/dc/elements/1.1/"
   xmlns:cc="http://creativecommons.org/ns#"
   xmlns:rdf="http://www.w3.org/1999/02/22-rdf-syntax-ns#"
   xmlns:svg="http://www.w3.org/2000/svg"
   xmlns="http://www.w3.org/2000/svg"
   xmlns:sodipodi="http://sodipodi.sourceforge.net/DTD/sodipodi-0.dtd"
   xmlns:inkscape="http://www.inkscape.org/namespaces/inkscape"
   width="16"
   height="16"
   id="svg1898"
   sodipodi:version="0.32"
   inkscape:version="0.47 r22583"
   version="1.0"
   sodipodi:docname="Deutsche_Post-Logo.svg">
  <defs
     id="defs1900">
    <inkscape:perspective
       sodipodi:type="inkscape:persp3d"
       inkscape:vp_x="0 : 72.749008 : 1"
       inkscape:vp_y="0 : 1000 : 0"
       inkscape:vp_z="605.35712 : 72.749008 : 1"
       inkscape:persp3d-origin="302.67856 : 48.499339 : 1"
       id="perspective29" />
    <metadata
       id="CorelCorpID_0Corel-Layer" />
  </defs>
  <sodipodi:namedview
     id="base"
     pagecolor="#ffffff"
     bordercolor="#666666"
     borderopacity="1.0"
     inkscape:pageopacity="0.0"
     inkscape:pageshadow="2"
     inkscape:zoom="1.4320686"
     inkscape:cx="91.221826"
     inkscape:cy="12.863806"
     inkscape:document-units="px"
     inkscape:current-layer="layer1"
     inkscape:window-width="1329"
     inkscape:window-height="851"
     inkscape:window-x="92"
     inkscape:window-y="92"
     showgrid="false"
     inkscape:window-maximized="0"
     inkscape:snap-page="false"
     inkscape:snap-grids="true"
     inkscape:snap-to-guides="false">
    <sodipodi:guide
       position="-225.83634,1.6958201e-05"
       orientation="0,605.35712"
       id="guide2855" />
    <sodipodi:guide
       position="379.52078,1.6958201e-05"
       orientation="-145.49802,0"
       id="guide2857" />
    <sodipodi:guide
       position="379.52078,145.49804"
       orientation="0,-605.35712"
       id="guide2859" />
    <sodipodi:guide
       position="-225.83634,145.49804"
       orientation="145.49802,0"
       id="guide2861" />
  </sodipodi:namedview>
  <metadata
     id="metadata1903">
    <rdf:RDF>
      <cc:Work
         rdf:about="">
        <dc:format>image/svg+xml</dc:format>
        <dc:type
           rdf:resource="http://purl.org/dc/dcmitype/StillImage" />
      </cc:Work>
    </rdf:RDF>
  </metadata>
  <g
     inkscape:label="Ebene 1"
     inkscape:groupmode="layer"
     id="layer1"
     transform="translate(-317.44354,-780.53974)">
    <g
       id="g2038"
       transform="matrix(0.11096053,0,0,0.10996714,260.74075,708.94654)">
      <polygon
         transform="matrix(0.61040167,0,0,2.562571,509.86727,644.0665)"
         style="fill:#ffcc00;fill-rule:nonzero"
         points="1.88462,2.72196 1.88462,59.5001 1.88462,59.5001 238.115,59.5001 238.115,2.72196 "
         id="_227260912" />
      <g
         id="g2017">
        <polygon
           id="_225737648"
           points="192.655,41.9979 187.036,47.6823 181.474,47.6823 187.091,41.9979 187.091,41.9979 "
           style="fill:#000000;fill-rule:nonzero"
           transform="matrix(2.562571,0,0,2.562571,86.77773,644.0665)" />
        <polygon
           id="_229043400"
           points="185.151,41.9979 179.532,47.6823 173.968,47.6823 179.587,41.9979 179.587,41.9979 "
           style="fill:#000000;fill-rule:nonzero"
           transform="matrix(2.562571,0,0,2.562571,86.77773,644.0665)" />
        <polygon
           id="_226455448"
           points="193.947,41.9979 199.564,47.6823 205.128,47.6823 199.509,41.9979 199.509,41.9979 "
           style="fill:#000000;fill-rule:nonzero"
           transform="matrix(2.562571,0,0,2.562571,86.77773,644.0665)" />
        <polygon
           id="_227904456"
           points="201.451,41.9979 207.068,47.6823 212.632,47.6823 207.015,41.9979 207.015,41.9979 "
           style="fill:#000000;fill-rule:nonzero"
           transform="matrix(2.562571,0,0,2.562571,86.77773,644.0665)" />
        <path
           id="path2012"
           style="fill:#000000"
           d="m 608.52487,711.25814 c 2.46919,-6.73557 4.1894,-16.98859 4.54749,-24.16243 l 25.2936,6.28911 c -2.02499,29.68892 -24.29499,55.69312 -57.32676,55.68236 -37.36946,-0.0169 -51.81134,-32.50109 -49.8684,-57.12048 l 10.97464,-3.48965 c -1.7849,14.00826 2.55074,24.10866 5.54154,28.74461 -3.56026,-19.82087 11.40377,-35.86472 30.12891,-35.87548 16.84053,-0.0105 30.77315,12.28668 30.70883,29.93211 l 1.5e-4,-1.5e-4 z m -50.9006,0.62458 0,0 c 0,11.18055 9.06489,20.24544 20.24544,20.24544 11.17601,0 20.23908,-9.06489 20.23908,-20.24544 0,-11.17599 -9.0631,-20.23952 -20.23908,-20.23952 -11.18055,0 -20.24544,9.06353 -20.24544,20.23952 z" />
      </g>
    </g>
  </g>
</svg>
