<?xml version="1.0" encoding="UTF-8" standalone="no"?>
<svg
   xmlns:dc="http://purl.org/dc/elements/1.1/"
   xmlns:cc="http://creativecommons.org/ns#"
   xmlns:rdf="http://www.w3.org/1999/02/22-rdf-syntax-ns#"
   xmlns:svg="http://www.w3.org/2000/svg"
   xmlns="http://www.w3.org/2000/svg"
   xmlns:sodipodi="http://sodipodi.sourceforge.net/DTD/sodipodi-0.dtd"
   xmlns:inkscape="http://www.inkscape.org/namespaces/inkscape"
   version="1.1"
   width="24.001623"
   id="symbol-swimming-borderless"
   viewBox="0 0 154.51689 154.14556"
   height="23.943943"
   inkscape:version="0.47 r22583"
   sodipodi:docname="swimming-outdoor.svg">
  <metadata
     id="metadata3102">
    <rdf:RDF>
      <cc:Work
         rdf:about="">
        <dc:format>image/svg+xml</dc:format>
        <dc:type
           rdf:resource="http://purl.org/dc/dcmitype/StillImage" />
        <dc:title />
      </cc:Work>
    </rdf:RDF>
  </metadata>
  <defs
     id="defs3100">
    <inkscape:perspective
       sodipodi:type="inkscape:persp3d"
       inkscape:vp_x="0 : 23.299999 : 1"
       inkscape:vp_y="0 : 1000 : 0"
       inkscape:vp_z="46.599998 : 23.299999 : 1"
       inkscape:persp3d-origin="23.299999 : 15.533333 : 1"
       id="perspective3104" />
    <inkscape:perspective
       id="perspective3886"
       inkscape:persp3d-origin="0.5 : 0.33333333 : 1"
       inkscape:vp_z="1 : 0.5 : 1"
       inkscape:vp_y="0 : 1000 : 0"
       inkscape:vp_x="0 : 0.5 : 1"
       sodipodi:type="inkscape:persp3d" />
  </defs>
  <sodipodi:namedview
     pagecolor="#ffffff"
     bordercolor="#666666"
     borderopacity="1"
     objecttolerance="10"
     gridtolerance="10"
     guidetolerance="10"
     inkscape:pageopacity="0"
     inkscape:pageshadow="2"
     inkscape:window-width="1175"
     inkscape:window-height="852"
     id="namedview3098"
     showgrid="false"
     inkscape:zoom="13.221777"
     inkscape:cx="-1.613092"
     inkscape:cy="22.548361"
     inkscape:window-x="142"
     inkscape:window-y="94"
     inkscape:window-maximized="0"
     inkscape:current-layer="symbol-swimming-borderless" />
  <path
     sodipodi:type="arc"
     style="fill:#ffffff;stroke:#0000ff;stroke-width:2;stroke-linecap:round;stroke-linejoin:round;stroke-miterlimit:4;stroke-opacity:1;stroke-dasharray:none;fill-opacity:1"
     id="path3929"
     sodipodi:cx="22.75699"
     sodipodi:cy="22.806355"
     sodipodi:rx="21.572245"
     sodipodi:ry="21.522881"
     d="m 44.329235,22.806355 a 21.572245,21.522881 0 1 1 -43.1444892,0 21.572245,21.522881 0 1 1 43.1444892,0 z"
     transform="matrix(3.422736,0,0,3.4219598,-0.63272418,-0.96964845)" />
  <path
     d="m 104.40854,86.695482 c 5.13598,-0.0181 8.71105,-9.74099 19.44112,-9.60715 10.97373,0.13384 12.34639,8.14564 19.2623,8.29346 -0.0369,4.63782 -0.002,3.59728 0.0341,7.75736 -9.9607,-0.22956 -11.01193,-10.11331 -19.18094,-9.86286 -8.08286,0.25046 -9.69623,10.19362 -19.19851,10.00867 -9.588425,-0.18496 -10.662812,-10.07509 -20.555614,-10.12069 -9.978953,-0.0456 -12.397789,9.59514 -21.0402,9.72747 -2.25251,-0.0584 -4.317109,-0.87286 -6.261025,-1.9954 -4.716246,-2.72347 -8.722061,-7.26066 -12.977401,-7.21582 -6.009578,0.0634 -11.622721,7.81564 -19.06746,7.89714 -7.260861,0.079 -10.324996,-6.10607 -14.194015,-6.10034 0.04239,-4.28703 -0.04669,-3.55833 -0.0715,-7.5869 6.717395,0.14204 9.967997,6.43502 13.805064,6.52494 3.880144,0.0899 12.96685,-7.86171 17.726263,-7.80933 4.758742,0.0524 7.416758,0.29227 11.74794,3.55066 8.006417,-3.71007 23.757933,-11.92775 24.058781,-12.47699 2.368759,-4.32447 0.205223,-14.86327 -7.111402,-16.74341 -7.235891,-1.8594 -20.559633,2.50339 -29.910616,4.05512 -9.314466,1.54567 -10.87705,-5.59543 -2.457617,-9.03544 8.539276,-3.48899 21.05771,-6.499 30.813071,-8.33936 9.696553,-1.82925 11.158978,1.12599 12.577938,4.02942 1.442971,2.95254 19.057683,43.00162 19.057683,43.00162 1.61672,1.56133 2.06545,2.05277 3.50199,2.04783 z"
     id="path3094"
     style="fill:#0000ff" />
  <path
     style="fill:#0000ff;stroke:#0000ff;stroke-width:9.38761425;stroke-linejoin:miter;stroke-miterlimit:4;stroke-opacity:1"
     d="m 118.46922,58.709902 a 9.3261714,9.0246347 0 0 1 -18.652335,0 9.3261714,9.0246347 0 1 1 18.652335,0 z"
     id="path3096" />
  <path
     d="m 104.34338,103.36235 c 5.136,-0.0179 8.71107,-9.740998 19.44111,-9.607148 10.97375,0.13384 12.3464,8.145638 19.26232,8.293458 -0.0369,4.63781 -0.002,3.59728 0.0341,7.75736 -9.9607,-0.22955 -11.01193,-10.113308 -19.18094,-9.862858 -8.08287,0.250438 -9.69623,10.193618 -19.19851,10.008658 -9.588435,-0.18495 -10.662823,-10.075088 -20.55563,-10.120688 -9.978953,-0.0456 -12.397784,9.595138 -21.040201,9.727478 -2.252515,-0.0585 -4.317113,-0.87287 -6.261025,-1.99541 -4.71624,-2.72347 -8.722053,-7.26066 -12.977394,-7.2158 -6.009576,0.0633 -11.622719,7.81563 -19.067459,7.89712 -7.26086,0.079 -10.324999,-6.10607 -14.194018,-6.10033 0.04241,-4.287038 -0.0467,-3.558328 -0.07149,-7.586908 6.717391,0.14204 9.967997,6.435018 13.805063,6.524948 3.880145,0.0899 12.966851,-7.861708 17.72626,-7.809338 4.758745,0.0524 16.002679,4.25965 20.333862,7.518048 0.953695,4.2247 13.091995,-12.158558 22.832219,-10.951078 -15.016484,3.28527 4.567614,-6.35989 15.609703,11.474638 1.61672,1.56135 2.06544,2.05279 3.50198,2.04785 l -2e-5,0 z"
     id="path3094-4"
     style="fill:#0000ff"
     sodipodi:nodetypes="csccssscsssccssccccc" />
</svg>
