<?xml version="1.0" encoding="UTF-8" standalone="no"?>
<svg
   xmlns:dc="http://purl.org/dc/elements/1.1/"
   xmlns:cc="http://creativecommons.org/ns#"
   xmlns:rdf="http://www.w3.org/1999/02/22-rdf-syntax-ns#"
   xmlns:svg="http://www.w3.org/2000/svg"
   xmlns="http://www.w3.org/2000/svg"
   xmlns:sodipodi="http://sodipodi.sourceforge.net/DTD/sodipodi-0.dtd"
   xmlns:inkscape="http://www.inkscape.org/namespaces/inkscape"
   version="1.1"
   width="24.000214"
   id="symbol-swimming-borderless"
   viewBox="0 0 154.50782 154.36033"
   height="23.977304"
   inkscape:version="0.47 r22583"
   sodipodi:docname="swimming-indoor.svg">
  <metadata
     id="metadata3102">
    <rdf:RDF>
      <cc:Work
         rdf:about="">
        <dc:format>image/svg+xml</dc:format>
        <dc:type
           rdf:resource="http://purl.org/dc/dcmitype/StillImage" />
        <dc:title />
      </cc:Work>
    </rdf:RDF>
  </metadata>
  <defs
     id="defs3100">
    <inkscape:perspective
       sodipodi:type="inkscape:persp3d"
       inkscape:vp_x="0 : 23.299999 : 1"
       inkscape:vp_y="0 : 1000 : 0"
       inkscape:vp_z="46.599998 : 23.299999 : 1"
       inkscape:persp3d-origin="23.299999 : 15.533333 : 1"
       id="perspective3104" />
    <inkscape:perspective
       id="perspective3886"
       inkscape:persp3d-origin="0.5 : 0.33333333 : 1"
       inkscape:vp_z="1 : 0.5 : 1"
       inkscape:vp_y="0 : 1000 : 0"
       inkscape:vp_x="0 : 0.5 : 1"
       sodipodi:type="inkscape:persp3d" />
  </defs>
  <sodipodi:namedview
     pagecolor="#ffffff"
     bordercolor="#666666"
     borderopacity="1"
     objecttolerance="10"
     gridtolerance="10"
     guidetolerance="10"
     inkscape:pageopacity="0"
     inkscape:pageshadow="2"
     inkscape:window-width="1175"
     inkscape:window-height="852"
     id="namedview3098"
     showgrid="false"
     inkscape:zoom="12.848771"
     inkscape:cx="-2.0087749"
     inkscape:cy="23.220446"
     inkscape:window-x="142"
     inkscape:window-y="94"
     inkscape:window-maximized="0"
     inkscape:current-layer="symbol-swimming-borderless" />
  <path
     style="fill:#ffffff;stroke:#0000ff;stroke-width:8.12768078000000038;stroke-linecap:round;stroke-linejoin:round;stroke-miterlimit:4;stroke-opacity:1;stroke-dasharray:none;fill-opacity:1"
     d="m 4.0638404,150.29649 146.3801296,0 0,-85.28965 L 75.627461,4.0638404 4.0638404,65.00359 l 0,85.2929 z"
     sodipodi:nodetypes="cccccc"
     id="path3900" />
  <path
     d="m 103.43037,114.61976 c 4.98441,-0.0176 8.45399,-9.46635 18.86741,-9.33629 10.6499,0.13008 11.98204,7.91599 18.69386,8.05964 -0.0357,4.50706 -0.002,3.49586 0.0332,7.53865 -9.66675,-0.22308 -10.68695,-9.82817 -18.6149,-9.58479 -7.84434,0.24339 -9.41008,9.90623 -18.63196,9.72649 -9.305457,-0.17975 -10.34814,-9.79104 -19.949004,-9.83535 -9.684472,-0.0443 -12.031928,9.32462 -20.4193,9.45321 -2.186038,-0.0568 -4.18971,-0.84824 -6.076261,-1.93914 -4.577068,-2.64669 -8.464672,-7.05595 -12.594437,-7.01237 -5.832234,0.0616 -11.279732,7.59528 -18.504775,7.67448 -7.046591,0.0768 -10.020304,-5.93391 -13.775149,-5.92834 0.04114,-4.16616 -0.04531,-3.45801 -0.06939,-7.373 6.519163,0.13804 9.673841,6.25359 13.397675,6.34098 3.76564,0.0874 12.584196,-7.64006 17.203157,-7.58916 4.618311,0.0509 7.197887,0.28404 11.401258,3.45055 7.770146,-3.60546 23.056833,-11.59145 23.348802,-12.12521 2.298856,-4.20254 0.199167,-14.44421 -6.901543,-16.27134 -7.022358,-1.80698 -19.952918,2.4328 -29.02795,3.94079 -9.039595,1.50209 -10.556066,-5.43768 -2.385093,-8.78071 8.287281,-3.39061 20.436295,-6.31576 29.903774,-8.10423 9.410406,-1.77768 10.829674,1.09425 12.206761,3.91582 1.400389,2.86929 18.495285,41.78922 18.495285,41.78922 1.56901,1.51732 2.0045,1.9949 3.39864,1.9901 z"
     id="path3094"
     style="fill:#0000ff" />
  <path
     style="fill:#0000ff;stroke:#0000ff;stroke-width:9.11676025;stroke-linejoin:miter;stroke-miterlimit:4;stroke-opacity:1"
     d="m 117.07612,87.42321 a 9.0509544,8.7701936 0 0 1 -18.1019,0 9.0509544,8.7701936 0 1 1 18.1019,0 z"
     id="path3096" />
  <path
     d="m 103.36714,130.81672 c 4.98442,-0.0174 8.45399,-9.46636 18.8674,-9.33628 10.6499,0.13006 11.98205,7.91598 18.69388,8.05963 -0.0357,4.50706 -0.002,3.49586 0.0332,7.53865 -9.66676,-0.22307 -10.68697,-9.82817 -18.61491,-9.58479 -7.84434,0.24338 -9.41009,9.90623 -18.63196,9.72648 -9.30547,-0.17973 -10.348148,-9.79103 -19.949017,-9.83534 -9.684471,-0.0443 -12.031922,9.32461 -20.419299,9.45322 -2.186044,-0.0568 -4.189716,-0.84826 -6.076262,-1.93915 -4.577063,-2.64669 -8.464666,-7.05595 -12.59443,-7.01236 -5.832233,0.0616 -11.279732,7.59527 -18.504776,7.67447 -7.046591,0.0768 -10.020305,-5.93392 -13.775149,-5.92834 0.04115,-4.16617 -0.04533,-3.458 -0.06939,-7.373 6.519162,0.13803 9.67384,6.25359 13.397674,6.34098 3.765641,0.0874 12.584197,-7.64006 17.203156,-7.58916 4.618313,0.0509 15.530439,4.13955 19.733806,7.30608 0.925552,4.10559 12.705648,-11.81575 22.158437,-10.64232 -14.573345,3.19265 4.432822,-6.18058 15.149054,11.15113 1.569006,1.51732 2.004486,1.9949 3.398636,1.9901 l -2e-5,0 z"
     id="path3094-4"
     style="fill:#0000ff"
     sodipodi:nodetypes="csccssscsssccssccccc" />
</svg>
